<?xml version="1.0" encoding="UTF-8" standalone="no"?>
<svg
   xmlns:dc="http://purl.org/dc/elements/1.1/"
   xmlns:cc="http://creativecommons.org/ns#"
   xmlns:rdf="http://www.w3.org/1999/02/22-rdf-syntax-ns#"
   xmlns:svg="http://www.w3.org/2000/svg"
   xmlns="http://www.w3.org/2000/svg"
   xmlns:sodipodi="http://sodipodi.sourceforge.net/DTD/sodipodi-0.dtd"
   xmlns:inkscape="http://www.inkscape.org/namespaces/inkscape"
   version="1.0"
   width="468pt"
   height="203pt"
   viewBox="0 0 468 203"
   preserveAspectRatio="xMidYMid meet"
   id="svg2697"
   sodipodi:version="0.32"
   inkscape:version="0.46"
   sodipodi:docname="0001.svg"
   inkscape:output_extension="org.inkscape.output.svg.inkscape">
  <defs
     id="defs2810">
    <inkscape:perspective
       sodipodi:type="inkscape:persp3d"
       inkscape:vp_x="0 : 126.875 : 1"
       inkscape:vp_y="0 : 1000 : 0"
       inkscape:vp_z="585 : 126.875 : 1"
       inkscape:persp3d-origin="292.5 : 84.583333 : 1"
       id="perspective2812" />
  </defs>
  <sodipodi:namedview
     inkscape:window-height="973"
     inkscape:window-width="1680"
     inkscape:pageshadow="2"
     inkscape:pageopacity="0.0"
     guidetolerance="10.0"
     gridtolerance="10.0"
     objecttolerance="10.0"
     borderopacity="1.0"
     bordercolor="#666666"
     pagecolor="#ffffff"
     id="base"
     showgrid="false"
     inkscape:zoom="1.842735"
     inkscape:cx="297.44266"
     inkscape:cy="161.21764"
     inkscape:window-x="0"
     inkscape:window-y="25"
     inkscape:current-layer="svg2697" />
  <metadata
     id="metadata2699">
Created by potrace 1.8, written by Peter Selinger 2001-2007
<rdf:RDF>
  <cc:Work
     rdf:about="">
    <dc:format>image/svg+xml</dc:format>
    <dc:type
       rdf:resource="http://purl.org/dc/dcmitype/StillImage" />
  </cc:Work>
</rdf:RDF>
</metadata>
  <g
     transform="matrix(2.3772029e-2,-2.2471183e-3,-2.2471183e-3,-2.3772029e-2,10.474576,224.50471)"
     id="g2701"
     style="fill:#000000;stroke:none">
    <path
       d="M 7370,8354 C 7340,8348 7289,8333 7258,8321 C 7226,8310 7196,8300 7191,8300 C 7160,8300 7065,8241 7008,8187 C 6929,8112 6893,8064 6855,7983 C 6839,7948 6822,7920 6818,7920 C 6813,7920 6810,7914 6811,7908 C 6812,7901 6805,7877 6795,7855 C 6764,7786 6749,7675 6756,7555 C 6761,7460 6766,7439 6788,7405 C 6843,7319 6956,7190 6976,7190 C 6984,7190 7043,7172 7107,7150 C 7260,7099 7320,7101 7495,7161 C 7629,7207 7672,7233 7746,7312 C 7803,7372 7823,7422 7840,7543 C 7845,7586 7855,7631 7861,7642 C 7879,7675 7884,7820 7870,7881 C 7854,7951 7771,8125 7728,8178 C 7710,8200 7687,8231 7677,8245 C 7657,8273 7548,8330 7472,8353 C 7433,8364 7414,8364 7370,8354 z M 7530,8256 C 7603,8221 7628,8201 7675,8138 C 7745,8045 7796,7926 7811,7823 C 7822,7740 7822,7729 7802,7663 C 7790,7623 7777,7570 7774,7543 C 7761,7439 7742,7396 7687,7343 C 7607,7267 7587,7255 7445,7209 C 7405,7196 7357,7189 7300,7189 C 7228,7189 7200,7194 7119,7223 C 7066,7241 7013,7264 7001,7272 C 6966,7297 6863,7437 6849,7478 C 6830,7536 6832,7724 6853,7793 C 6863,7824 6874,7850 6879,7850 C 6884,7850 6887,7856 6886,7863 C 6886,7869 6905,7915 6930,7965 C 6978,8061 7060,8151 7140,8196 C 7193,8226 7291,8251 7307,8239 C 7314,8233 7319,8233 7322,8241 C 7324,8247 7349,8253 7380,8254 C 7427,8255 7435,8258 7433,8273 C 7432,8288 7437,8290 7458,8285 C 7473,8281 7505,8269 7530,8256 z"
       id="path2703" />
    <path
       d="M 7334,8093 C 7330,8077 7320,8054 7312,8040 C 7286,8000 7261,7957 7248,7930 C 7241,7916 7230,7901 7223,7897 C 7216,7893 7210,7885 7210,7880 C 7210,7865 7146,7766 7117,7738 C 7097,7718 7091,7704 7095,7687 C 7099,7671 7088,7640 7057,7585 C 6994,7471 6974,7414 6990,7395 C 7012,7369 7052,7380 7062,7415 C 7075,7456 7082,7473 7124,7563 L 7161,7641 L 7282,7635 C 7349,7631 7412,7624 7423,7619 C 7447,7605 7461,7567 7467,7495 C 7475,7406 7492,7386 7544,7406 C 7565,7414 7564,7430 7535,7557 C 7510,7663 7498,7708 7459,7840 C 7449,7876 7428,7948 7414,8000 C 7399,8052 7383,8101 7378,8108 C 7361,8128 7341,8122 7334,8093 z M 7365,7903 C 7375,7871 7389,7820 7396,7790 C 7404,7760 7413,7727 7416,7716 C 7422,7699 7417,7698 7334,7704 C 7235,7711 7213,7714 7205,7721 C 7203,7724 7216,7753 7235,7784 C 7254,7816 7270,7844 7270,7846 C 7270,7848 7284,7869 7300,7892 C 7317,7914 7330,7939 7330,7947 C 7330,7980 7350,7955 7365,7903 z"
       id="path2705" />
    <path
       d="M 3675,8040 C 3672,8035 3674,8030 3679,8030 C 3685,8030 3690,8035 3690,8040 C 3690,8046 3688,8050 3686,8050 C 3683,8050 3678,8046 3675,8040 z"
       id="path2707" />
    <path
       d="M 12877,7904 C 12795,7880 12710,7840 12691,7816 C 12683,7807 12671,7800 12664,7800 C 12656,7800 12650,7795 12650,7790 C 12650,7781 12629,7754 12585,7706 C 12549,7667 12479,7564 12469,7535 C 12462,7516 12453,7500 12450,7500 C 12446,7500 12443,7494 12443,7488 C 12442,7481 12421,7426 12396,7365 C 12371,7305 12350,7247 12350,7238 C 12350,7229 12346,7218 12340,7215 C 12335,7212 12333,7158 12336,7079 C 12342,6931 12352,6900 12427,6789 C 12512,6661 12571,6628 12818,6573 C 12830,6570 12840,6565 12840,6561 C 12840,6552 13023,6566 13084,6581 C 13148,6596 13333,6683 13360,6710 C 13363,6713 13391,6734 13423,6758 C 13519,6830 13550,6882 13602,7060 C 13634,7169 13643,7284 13626,7390 C 13622,7415 13615,7463 13610,7496 C 13591,7617 13566,7665 13459,7782 C 13371,7879 13337,7896 13215,7905 C 13166,7908 13100,7916 13069,7921 C 12996,7933 12966,7931 12877,7904 z M 13082,7826 C 13111,7805 13117,7806 13125,7830 C 13133,7855 13164,7856 13256,7834 C 13336,7816 13384,7784 13428,7721 C 13445,7696 13473,7659 13489,7640 C 13537,7583 13562,7466 13564,7290 C 13565,7150 13564,7142 13531,7045 C 13512,6990 13489,6929 13480,6910 C 13445,6842 13341,6764 13189,6691 C 13088,6644 13043,6631 12965,6628 C 12891,6625 12856,6631 12739,6665 C 12582,6710 12553,6731 12474,6858 C 12431,6927 12428,6936 12420,7029 C 12408,7168 12420,7256 12465,7339 C 12472,7353 12488,7392 12501,7425 C 12537,7520 12593,7609 12671,7693 C 12744,7771 12797,7806 12894,7836 C 12945,7852 13053,7846 13082,7826 z"
       id="path2709" />
    <path
       d="M 12885,7611 C 12850,7596 12827,7531 12815,7410 C 12811,7374 12802,7305 12794,7255 C 12786,7206 12775,7129 12769,7085 C 12764,7041 12755,6981 12750,6951 C 12728,6830 12735,6819 12843,6799 C 12901,6788 12917,6789 12996,6809 C 13107,6836 13200,6871 13200,6886 C 13200,6892 13207,6903 13215,6910 C 13223,6916 13241,6942 13255,6967 C 13281,7010 13281,7016 13275,7106 C 13268,7197 13266,7201 13228,7245 C 13195,7282 13190,7293 13200,7305 C 13207,7313 13218,7320 13225,7320 C 13232,7320 13258,7342 13284,7370 C 13334,7423 13339,7446 13315,7502 C 13301,7538 13239,7599 13217,7601 C 13210,7601 13196,7604 13185,7606 C 13145,7616 12904,7620 12885,7611 z M 13200,7522 C 13242,7502 13260,7462 13241,7428 C 13222,7392 13124,7350 13058,7350 C 13028,7350 12982,7347 12956,7344 C 12917,7338 12909,7333 12903,7312 C 12898,7292 12902,7283 12920,7271 C 12933,7262 12955,7254 12969,7253 C 13022,7250 13116,7228 13141,7213 C 13179,7191 13190,7166 13196,7097 C 13200,7047 13198,7028 13182,7000 C 13171,6981 13155,6966 13146,6966 C 13137,6967 13133,6964 13136,6959 C 13148,6940 13106,6918 13014,6894 C 12915,6869 12864,6864 12843,6878 C 12828,6887 12833,7019 12854,7155 C 12862,7210 12871,7280 12874,7310 C 12884,7411 12903,7515 12912,7527 C 12932,7552 13144,7548 13200,7522 z"
       id="path2711" />
    <path
       d="M 12536,6892 C 12533,6886 12535,6878 12541,6875 C 12556,6865 12566,6878 12553,6891 C 12546,6898 12540,6898 12536,6892 z"
       id="path2713" />
    <path
       d="M 674,7076 C 661,7067 649,7043 645,7018 C 640,6994 636,6973 636,6970 C 633,6962 611,6840 605,6800 C 598,6756 591,6627 585,6385 C 579,6154 573,6087 554,6041 C 546,6021 536,5978 533,5945 C 529,5895 531,5881 547,5861 C 562,5843 573,5838 592,5843 C 616,5849 617,5852 617,5932 C 618,5984 624,6032 634,6060 C 646,6093 652,6152 655,6295 C 662,6568 670,6749 675,6795 C 680,6836 710,6993 713,6997 C 723,7007 994,7020 1100,7015 C 1268,7009 1449,7008 1650,7015 C 1755,7018 1842,7015 1920,7005 C 2117,6980 2134,6979 2607,6975 C 2861,6974 3088,6968 3112,6964 C 3136,6960 3163,6956 3172,6956 C 3181,6955 3191,6952 3195,6948 C 3199,6944 3215,6944 3231,6947 C 3249,6950 3260,6948 3260,6941 C 3260,6935 3268,6930 3278,6930 C 3287,6930 3329,6912 3370,6890 C 3411,6868 3451,6850 3457,6850 C 3477,6850 3550,6816 3550,6808 C 3550,6803 3556,6800 3562,6800 C 3581,6800 3680,6748 3680,6738 C 3680,6734 3686,6730 3693,6730 C 3699,6730 3723,6713 3746,6692 C 3801,6642 3843,6610 3853,6610 C 3858,6610 3876,6599 3893,6586 C 3911,6572 3950,6552 3980,6540 C 4010,6529 4049,6513 4067,6505 C 4084,6497 4101,6490 4104,6490 C 4123,6490 4249,6426 4244,6419 C 4238,6409 4081,6407 3992,6416 C 3935,6422 3931,6425 3925,6452 C 3915,6494 3873,6540 3843,6540 C 3830,6540 3811,6547 3802,6556 C 3782,6576 3702,6570 3649,6545 C 3546,6496 3508,6281 3593,6228 C 3616,6213 3624,6213 3740,6224 C 3820,6231 3871,6259 3892,6306 C 3900,6323 3911,6330 3929,6330 C 3985,6328 4140,6328 4228,6328 C 4278,6328 4320,6326 4320,6322 C 4320,6318 4287,6302 4247,6286 C 4208,6271 4161,6251 4143,6244 C 4126,6236 4076,6218 4033,6203 C 3990,6189 3924,6160 3887,6139 C 3849,6117 3816,6100 3814,6100 C 3800,6100 3550,5969 3522,5947 C 3498,5928 3408,5890 3400,5895 C 3395,5898 3390,5896 3388,5890 C 3387,5885 3355,5870 3318,5856 L 3250,5832 L 2578,5836 C 2208,5838 1833,5842 1745,5844 C 1657,5847 1473,5842 1335,5834 C 1198,5826 979,5820 850,5822 L 616,5825 L 606,5797 C 598,5775 599,5767 610,5759 C 630,5747 1077,5750 1299,5765 C 1518,5779 2984,5774 3080,5759 C 3115,5753 3150,5744 3157,5738 C 3164,5732 3170,5730 3170,5734 C 3170,5738 3180,5734 3193,5725 C 3214,5712 3218,5712 3241,5728 C 3254,5737 3343,5784 3439,5832 C 3534,5880 3636,5936 3665,5955 C 3695,5974 3725,5990 3732,5990 C 3740,5990 3755,5997 3766,6005 C 3776,6013 3793,6020 3803,6020 C 3812,6020 3820,6025 3820,6030 C 3820,6036 3827,6040 3835,6040 C 3844,6040 3894,6062 3948,6088 C 4038,6134 4155,6179 4225,6196 C 4263,6205 4257,6203 4314,6229 C 4341,6242 4368,6253 4374,6254 C 4380,6255 4395,6261 4407,6268 C 4419,6275 4438,6280 4449,6280 C 4459,6280 4470,6284 4472,6290 C 4474,6296 4507,6295 4565,6285 C 4615,6277 4696,6270 4745,6269 C 4795,6268 4889,6257 4955,6245 C 5021,6232 5106,6219 5145,6215 C 5183,6211 5224,6204 5236,6200 C 5247,6195 5286,6189 5321,6186 C 5356,6183 5420,6175 5464,6169 L 5543,6157 L 5536,6007 C 5532,5924 5526,5852 5523,5847 C 5520,5842 5518,5808 5519,5772 C 5520,5736 5516,5684 5511,5656 C 5506,5628 5494,5556 5485,5495 C 5476,5435 5462,5354 5454,5315 C 5446,5277 5437,5229 5435,5210 C 5433,5190 5423,5127 5415,5070 C 5406,5012 5395,4938 5390,4905 C 5385,4872 5374,4798 5366,4740 C 5357,4682 5350,4616 5350,4592 C 5350,4568 5345,4539 5339,4528 C 5333,4517 5326,4464 5325,4411 C 5323,4358 5317,4295 5311,4270 C 5306,4245 5299,4194 5296,4155 C 5288,4062 5285,4047 5272,4042 C 5266,4040 5231,4048 5193,4059 C 5156,4070 5094,4084 5055,4090 C 4992,4100 4889,4125 4805,4150 C 4659,4195 4414,4260 4337,4276 C 4327,4278 4309,4282 4297,4286 C 4285,4290 4268,4294 4260,4294 C 4252,4295 4207,4308 4160,4322 C 4113,4337 4056,4354 4033,4360 C 4009,4366 3990,4375 3990,4380 C 3990,4385 3972,4399 3949,4410 C 3927,4422 3883,4457 3852,4489 C 3813,4529 3779,4553 3745,4565 C 3560,4631 3296,4749 3250,4785 C 3242,4792 3225,4801 3213,4804 C 3179,4815 3027,4901 2989,4932 C 2896,5006 2876,5020 2861,5021 C 2852,5022 2780,5023 2700,5024 C 2620,5025 2488,5034 2405,5044 C 2306,5055 2157,5062 1963,5064 C 1803,5066 1668,5070 1663,5073 C 1654,5079 933,5092 677,5091 C 583,5090 523,5094 511,5102 C 486,5117 460,5105 460,5078 C 460,5043 453,4895 447,4800 C 444,4753 438,4666 435,4605 C 431,4545 424,4475 419,4450 C 414,4425 408,4391 406,4374 C 392,4261 387,4227 375,4160 C 367,4119 360,4060 358,4030 C 355,3979 357,3975 378,3972 C 394,3969 399,3964 396,3952 C 393,3943 395,3928 400,3920 C 408,3907 449,3905 657,3903 C 793,3903 961,3899 1030,3896 C 1099,3893 1227,3888 1315,3885 C 1499,3878 1697,3863 1755,3850 C 1777,3845 1848,3839 1912,3836 C 2035,3830 2077,3827 2250,3809 C 2308,3803 2413,3797 2484,3796 C 2578,3795 2614,3792 2618,3782 C 2620,3776 2627,3773 2633,3777 C 2640,3782 2658,3785 2675,3785 C 2699,3785 2706,3790 2713,3818 C 2720,3841 2729,3850 2744,3850 C 2756,3850 2782,3861 2802,3875 C 2822,3889 2848,3900 2859,3900 C 2871,3900 2880,3904 2880,3909 C 2880,3914 2890,3921 2903,3925 C 2915,3928 2945,3940 2970,3950 C 2995,3960 3053,3983 3100,4000 C 3147,4018 3205,4040 3230,4050 C 3313,4084 3385,4109 3472,4136 C 3521,4150 3562,4166 3565,4170 C 3576,4189 3770,4248 3830,4252 C 3838,4252 3858,4262 3873,4273 C 3900,4291 3907,4292 3978,4280 C 4020,4273 4062,4266 4070,4265 C 4100,4261 4146,4248 4170,4238 C 4184,4232 4204,4225 4215,4223 C 4337,4203 4465,4173 4492,4159 C 4502,4154 4518,4150 4527,4150 C 4537,4150 4586,4137 4635,4121 C 4685,4105 4757,4084 4795,4075 C 4834,4066 4872,4054 4881,4049 C 4890,4045 4908,4039 4921,4036 C 4934,4033 4979,4024 5020,4016 C 5062,4008 5109,3996 5125,3990 C 5142,3984 5182,3973 5215,3966 C 5252,3958 5274,3949 5272,3941 C 5269,3926 5257,3683 5258,3655 C 5259,3644 5255,3619 5250,3600 C 5245,3581 5238,3536 5235,3500 C 5232,3464 5223,3390 5215,3335 C 5207,3280 5198,3206 5195,3170 C 5185,3037 5178,2964 5173,2945 C 5171,2934 5169,2918 5169,2910 C 5169,2902 5167,2881 5164,2864 C 5159,2829 5166,2831 4925,2779 C 4848,2762 4749,2740 4705,2730 C 4497,2684 4328,2650 4301,2650 C 4285,2650 4259,2645 4244,2640 C 4229,2634 4168,2625 4110,2619 C 4020,2611 3999,2612 3974,2625 C 3958,2633 3937,2640 3927,2640 C 3916,2640 3891,2655 3870,2673 C 3849,2691 3815,2711 3793,2719 C 3772,2726 3719,2750 3675,2771 C 3631,2793 3546,2828 3485,2849 C 3384,2885 3148,2988 3125,3007 C 3098,3029 3058,3037 3005,3033 C 2972,3031 2905,3036 2855,3044 C 2776,3057 2656,3072 2525,3085 C 2503,3088 2469,3092 2450,3095 C 2431,3098 2379,3102 2335,3105 C 2291,3108 2243,3113 2228,3115 C 2212,3118 2188,3122 2173,3125 C 2157,3127 2091,3138 2025,3149 C 1886,3172 1764,3188 1665,3195 C 1561,3202 1403,3219 1340,3229 C 1211,3251 914,3269 635,3271 C 525,3272 397,3276 350,3281 C 303,3285 263,3286 260,3284 C 257,3281 254,3244 253,3202 C 248,3055 242,3004 216,2905 C 190,2809 153,2617 125,2440 C 114,2372 103,2136 109,2084 C 109,2078 131,2065 156,2055 C 198,2039 220,2038 379,2047 C 657,2063 1372,2053 1650,2030 C 1779,2019 1972,2008 2077,2005 C 2183,2002 2300,1996 2337,1991 C 2375,1986 2457,1978 2520,1975 C 2583,1971 2638,1966 2642,1963 C 2647,1961 2724,1955 2814,1951 C 2905,1947 2985,1939 2992,1934 C 3012,1919 3079,1917 3095,1930 C 3104,1938 3122,1940 3142,1936 C 3160,1932 3205,1928 3242,1926 C 3305,1922 3309,1923 3314,1946 C 3321,1973 3314,1993 3300,1985 C 3295,1982 3288,1984 3285,1990 C 3281,1996 3284,1999 3292,1998 C 3299,1996 3304,2000 3303,2006 C 3300,2023 3396,2118 3455,2156 C 3487,2176 3670,2309 3785,2396 C 3914,2493 3986,2522 4135,2535 C 4179,2539 4220,2546 4225,2550 C 4235,2558 4297,2571 4340,2575 C 4375,2579 4652,2637 4725,2656 C 4758,2664 4819,2677 4860,2684 C 4901,2691 4944,2701 4955,2707 C 4966,2713 5004,2723 5040,2729 C 5076,2734 5115,2742 5128,2746 C 5148,2752 5150,2749 5150,2716 C 5150,2664 5121,2493 5105,2443 C 5093,2409 5093,2395 5102,2374 C 5114,2349 5116,2349 5170,2356 C 5200,2360 5272,2362 5330,2361 C 5564,2358 5788,2351 5840,2345 C 5870,2342 5940,2335 5995,2330 C 6050,2324 6255,2317 6450,2314 C 6645,2311 6832,2307 6865,2306 C 7091,2296 7239,2287 7265,2283 C 7282,2280 7428,2277 7590,2275 C 8270,2268 8794,2251 8820,2235 C 8824,2233 8870,2228 8923,2224 C 8976,2221 9061,2213 9112,2206 C 9204,2195 9204,2195 9211,2164 C 9219,2120 9228,2110 9256,2110 C 9288,2110 9290,2117 9294,2230 C 9298,2339 9302,2362 9318,2368 C 9325,2370 9330,2377 9330,2383 C 9330,2390 9338,2409 9347,2425 C 9361,2450 9364,2496 9366,2725 C 9368,2914 9373,3016 9384,3065 C 9392,3104 9401,3162 9405,3195 C 9409,3228 9415,3259 9418,3264 C 9421,3269 9424,3287 9425,3304 C 9426,3321 9439,3414 9453,3510 C 9468,3606 9482,3705 9485,3730 C 9487,3755 9494,3795 9500,3820 C 9506,3845 9515,3903 9520,3950 C 9525,3997 9531,4046 9534,4060 C 9537,4074 9544,4119 9549,4160 C 9555,4201 9562,4244 9564,4256 C 9574,4304 9598,4544 9605,4665 C 9608,4720 9613,4779 9615,4795 C 9617,4812 9622,4857 9625,4895 C 9646,5128 9680,5295 9712,5318 C 9736,5335 9735,5372 9710,5395 C 9695,5409 9693,5417 9701,5432 C 9707,5443 9709,5454 9707,5457 C 9704,5459 9699,5452 9695,5441 C 9687,5414 9678,5415 9643,5444 C 9624,5460 9609,5489 9596,5531 C 9586,5566 9574,5604 9570,5615 C 9565,5626 9554,5667 9544,5705 C 9535,5744 9519,5784 9508,5796 C 9498,5807 9490,5821 9490,5827 C 9490,5832 9480,5848 9467,5862 C 9455,5875 9426,5909 9405,5936 C 9355,5997 9354,5999 9305,6034 C 9249,6075 9015,6313 8986,6358 C 8973,6378 8955,6401 8946,6409 C 8937,6416 8930,6429 8930,6436 C 8930,6444 8926,6450 8921,6450 C 8915,6450 8910,6465 8908,6483 L 8905,6515 L 8840,6517 C 8804,6518 8735,6524 8685,6529 C 8636,6535 8543,6542 8480,6545 C 8417,6548 8327,6555 8280,6560 C 8233,6566 8146,6574 8085,6579 C 8025,6584 7959,6591 7940,6594 C 7921,6598 7869,6605 7825,6611 C 7781,6617 7732,6625 7715,6630 C 7685,6639 7625,6646 7520,6654 C 7490,6657 7422,6665 7370,6673 C 7241,6694 7169,6699 6935,6705 C 6825,6709 6710,6713 6680,6715 C 6467,6731 6201,6740 6000,6738 C 5871,6737 5729,6740 5684,6744 L 5603,6752 L 5592,6723 C 5586,6708 5578,6655 5574,6605 C 5561,6416 5551,6309 5544,6276 L 5538,6247 L 5476,6253 C 5443,6257 5404,6262 5390,6265 C 5376,6268 5348,6271 5327,6271 C 5305,6271 5277,6275 5263,6281 C 5241,6289 5120,6303 5080,6302 C 5072,6302 5052,6305 5035,6310 C 4959,6330 4887,6340 4795,6344 C 4740,6347 4684,6351 4670,6355 C 4656,6359 4611,6366 4570,6372 C 4529,6377 4487,6386 4477,6392 C 4466,6397 4456,6399 4453,6396 C 4450,6394 4427,6405 4402,6420 C 4340,6458 4258,6498 4130,6553 C 3946,6632 3917,6648 3840,6709 C 3749,6782 3622,6861 3537,6896 C 3454,6930 3328,7000 3314,7018 C 3305,7030 3259,7033 3054,7037 C 2917,7039 2762,7040 2710,7039 C 2613,7038 2378,7038 2305,7039 C 2266,7040 1953,7067 1895,7075 C 1844,7082 1625,7082 1598,7075 C 1583,7071 1569,7073 1565,7080 C 1560,7088 1554,7088 1544,7079 C 1534,7071 1502,7069 1432,7074 C 1379,7078 1191,7083 1015,7086 C 739,7090 692,7089 674,7076 z M 6440,6656 C 6528,6645 6677,6639 6933,6634 C 7087,6632 7216,6628 7220,6625 C 7224,6622 7256,6617 7291,6614 C 7326,6611 7357,6606 7360,6605 C 7366,6601 7421,6595 7545,6585 C 7584,6581 7685,6566 7770,6550 C 7855,6534 7966,6518 8015,6515 C 8065,6512 8146,6505 8195,6500 C 8320,6487 8476,6471 8542,6465 C 8560,6463 8621,6459 8678,6454 C 8753,6449 8780,6444 8776,6435 C 8774,6428 8769,6401 8765,6374 C 8762,6347 8753,6287 8745,6240 C 8717,6072 8699,5891 8690,5686 L 8681,5477 L 8705,5448 C 8719,5432 8730,5415 8730,5410 C 8730,5390 8845,5377 9034,5375 C 9145,5374 9293,5366 9365,5357 C 9437,5348 9521,5340 9553,5339 C 9585,5338 9613,5333 9616,5329 C 9619,5324 9616,5301 9609,5278 C 9603,5254 9596,5222 9593,5205 C 9591,5189 9587,5168 9584,5160 C 9581,5152 9576,5125 9574,5100 C 9571,5075 9563,5008 9555,4950 C 9547,4892 9538,4811 9535,4770 C 9532,4729 9527,4665 9524,4628 C 9521,4592 9517,4540 9516,4513 C 9511,4417 9497,4310 9489,4310 C 9485,4310 9478,4319 9475,4330 C 9472,4341 9466,4350 9462,4351 C 9458,4351 9416,4353 9368,4355 C 9321,4356 9260,4365 9233,4373 C 9207,4382 9163,4391 9135,4394 C 9108,4396 9042,4405 8990,4413 C 8893,4429 8787,4437 8600,4445 C 8542,4448 8464,4452 8425,4454 C 8387,4457 8277,4462 8182,4465 C 8086,4468 7978,4472 7942,4475 C 7905,4477 7758,4482 7615,4485 C 7472,4489 7353,4493 7350,4495 C 7347,4496 7156,4501 6925,4505 C 6626,4510 6503,4515 6498,4523 C 6492,4532 6490,4532 6490,4523 C 6490,4511 6255,4512 5965,4525 C 5905,4528 5757,4530 5637,4530 L 5419,4530 L 5424,4592 C 5427,4627 5429,4655 5430,4655 C 5431,4655 5433,4669 5435,4685 C 5437,4702 5442,4733 5445,4755 C 5448,4777 5451,4804 5451,4815 C 5450,4826 5459,4880 5469,4935 C 5498,5084 5500,5101 5506,5155 C 5509,5183 5515,5228 5520,5255 C 5526,5283 5532,5319 5534,5335 C 5536,5352 5543,5394 5549,5430 C 5588,5646 5596,5713 5611,5953 L 5623,6150 L 5666,6150 C 5706,6150 5711,6147 5724,6116 C 5732,6097 5757,6063 5780,6041 C 5875,5949 5999,5988 6056,6129 C 6074,6174 6071,6198 6037,6271 C 6010,6330 5939,6370 5871,6364 C 5813,6358 5797,6348 5759,6290 L 5726,6239 L 5676,6242 L 5625,6245 L 5626,6280 C 5628,6369 5642,6598 5647,6627 L 5652,6660 L 5824,6663 C 6020,6666 6388,6662 6440,6656 z M 3786,6465 C 3789,6458 3803,6454 3819,6456 C 3843,6459 3849,6455 3852,6435 C 3855,6422 3853,6405 3849,6398 C 3844,6391 3840,6376 3840,6364 C 3840,6328 3810,6313 3724,6305 C 3624,6297 3615,6303 3630,6380 C 3636,6410 3648,6442 3657,6452 C 3687,6486 3775,6495 3786,6465 z M 8907,6328 C 8933,6293 8979,6243 9008,6215 C 9038,6188 9082,6140 9106,6109 C 9130,6078 9183,6027 9223,5997 C 9263,5966 9309,5925 9324,5906 C 9339,5886 9362,5858 9376,5843 C 9418,5797 9457,5719 9490,5610 C 9508,5552 9531,5487 9541,5466 C 9551,5444 9560,5422 9560,5417 C 9560,5408 9511,5410 9325,5426 C 9292,5429 9252,5433 9235,5435 C 9219,5437 9133,5442 9045,5445 C 8957,5449 8878,5454 8870,5457 C 8862,5460 8840,5463 8822,5465 C 8804,5466 8786,5470 8782,5474 C 8775,5482 8776,5749 8785,5915 C 8788,5970 8799,6076 8810,6150 C 8820,6224 8832,6309 8835,6338 C 8839,6366 8846,6390 8850,6390 C 8855,6390 8880,6362 8907,6328 z M 5932,6265 C 6004,6236 6011,6158 5948,6105 C 5911,6074 5878,6073 5839,6102 C 5810,6124 5809,6126 5815,6190 C 5822,6280 5852,6299 5932,6265 z M 1350,5020 C 1468,5019 1600,5015 1643,5010 C 1686,5005 1815,5000 1929,5000 C 2043,4999 2167,4994 2206,4989 C 2270,4980 2499,4955 2615,4944 C 2643,4942 2703,4938 2750,4936 C 2835,4932 2901,4908 2923,4872 C 2928,4865 2941,4854 2953,4849 C 2965,4843 3007,4821 3045,4800 C 3084,4778 3126,4755 3140,4749 C 3169,4736 3191,4725 3235,4700 C 3253,4690 3276,4677 3286,4671 C 3354,4634 3523,4562 3625,4529 C 3720,4497 3753,4481 3783,4452 C 3826,4411 3833,4384 3798,4395 C 3785,4399 3735,4404 3685,4407 C 3636,4410 3578,4415 3557,4420 C 3536,4424 3488,4426 3450,4424 L 3380,4420 L 3380,4454 C 3380,4501 3354,4526 3311,4520 C 3304,4519 3276,4524 3249,4530 C 3128,4559 3000,4483 3000,4382 C 3000,4338 3025,4286 3060,4256 C 3086,4234 3101,4230 3148,4231 C 3251,4232 3301,4245 3331,4277 C 3345,4294 3359,4313 3362,4320 C 3367,4335 3548,4347 3578,4335 C 3587,4331 3625,4329 3662,4330 C 3759,4332 3765,4320 3679,4295 C 3638,4282 3544,4248 3470,4218 C 3282,4142 3173,4100 3162,4100 C 3151,4100 2973,4030 2902,3998 C 2878,3988 2833,3970 2802,3959 C 2770,3947 2734,3926 2720,3910 C 2695,3882 2694,3882 2560,3879 C 2371,3876 2040,3895 1775,3925 C 1709,3933 1585,3941 1500,3944 C 1303,3952 1085,3961 995,3965 C 957,3967 823,3972 698,3976 C 574,3980 467,3986 460,3990 C 438,4004 447,4167 485,4400 C 498,4485 514,4636 515,4700 C 522,4992 523,5010 534,5011 C 614,5014 716,5023 719,5026 C 721,5028 816,5028 929,5026 C 1042,5023 1232,5021 1350,5020 z M 6590,4445 C 6670,4443 6823,4439 6930,4436 C 7037,4433 7255,4428 7415,4425 C 7574,4421 7707,4417 7710,4415 C 7713,4413 7837,4409 7985,4405 C 8134,4402 8291,4397 8335,4395 C 8379,4393 8462,4388 8520,4385 C 8607,4380 8788,4361 8995,4335 C 9038,4330 9324,4276 9401,4259 C 9452,4248 9477,4254 9483,4278 C 9492,4312 9489,4244 9479,4200 C 9474,4175 9468,4135 9465,4110 C 9456,4022 9450,3954 9444,3895 C 9441,3862 9434,3817 9428,3795 C 9415,3745 9415,3743 9400,3635 C 9386,3532 9382,3505 9380,3505 C 9379,3505 9376,3489 9374,3470 C 9372,3451 9365,3417 9360,3395 C 9355,3373 9341,3292 9330,3215 C 9318,3138 9304,3055 9298,3030 C 9292,3005 9288,2892 9289,2770 C 9290,2549 9281,2481 9242,2391 C 9233,2371 9225,2348 9224,2340 C 9222,2332 9216,2324 9211,2322 C 9205,2320 9200,2312 9200,2304 C 9200,2293 9170,2291 9021,2295 C 8922,2297 8814,2304 8781,2310 C 8748,2316 8703,2320 8683,2319 C 8662,2318 8555,2320 8445,2324 C 8335,2328 8038,2333 7785,2335 C 7532,2337 7289,2341 7245,2345 C 7052,2359 6792,2370 6485,2375 C 6145,2381 6030,2387 6030,2398 C 6030,2402 5991,2406 5942,2406 C 5894,2407 5824,2410 5785,2413 C 5747,2416 5640,2421 5547,2425 C 5455,2429 5338,2437 5287,2444 L 5195,2455 L 5196,2510 C 5198,2578 5220,2729 5231,2752 C 5237,2762 5259,2771 5292,2775 C 5321,2779 5351,2787 5360,2793 C 5373,2800 5384,2795 5412,2766 C 5432,2746 5452,2730 5456,2731 C 5461,2733 5485,2728 5509,2721 C 5547,2710 5559,2711 5599,2726 C 5703,2765 5747,2818 5757,2916 C 5761,2954 5757,2978 5742,3013 C 5719,3064 5701,3075 5623,3085 C 5521,3099 5390,3018 5376,2933 C 5368,2889 5349,2875 5281,2864 L 5243,2858 L 5251,2906 C 5256,2933 5262,3009 5266,3075 C 5269,3141 5279,3251 5290,3320 C 5300,3389 5311,3477 5314,3515 C 5318,3554 5323,3605 5325,3630 C 5328,3655 5332,3705 5334,3741 C 5342,3859 5352,3930 5362,3930 C 5367,3930 5393,3923 5420,3914 C 5461,3901 5475,3889 5501,3848 C 5543,3782 5601,3755 5678,3765 C 5734,3772 5800,3816 5800,3847 C 5800,3856 5809,3878 5820,3896 C 5838,3924 5840,3940 5836,3996 C 5833,4033 5823,4074 5815,4086 C 5797,4114 5755,4127 5736,4110 C 5726,4102 5715,4102 5703,4108 C 5684,4118 5651,4123 5614,4121 C 5588,4120 5504,4047 5495,4019 C 5489,4000 5482,3999 5395,4015 C 5384,4017 5371,4019 5367,4019 C 5357,4020 5367,4196 5380,4241 C 5386,4260 5393,4312 5397,4357 L 5403,4439 L 5444,4445 C 5467,4448 5508,4452 5535,4454 C 5581,4457 6261,4451 6590,4445 z M 3232,4439 C 3246,4432 3260,4431 3274,4437 C 3310,4454 3320,4443 3304,4405 C 3296,4386 3290,4367 3291,4363 C 3297,4328 3260,4310 3186,4310 C 3116,4310 3077,4338 3082,4384 C 3084,4408 3093,4419 3120,4432 C 3160,4453 3202,4455 3232,4439 z M 5768,3996 C 5773,3940 5764,3916 5728,3880 C 5698,3850 5693,3848 5647,3854 C 5582,3861 5562,3880 5566,3928 C 5568,3948 5569,3970 5569,3977 C 5570,3984 5580,3999 5593,4011 C 5612,4029 5623,4031 5667,4026 C 5699,4022 5721,4024 5725,4031 C 5740,4055 5765,4035 5768,3996 z M 1026,3197 C 1031,3195 1091,3189 1160,3186 C 1229,3182 1323,3173 1370,3165 C 1482,3146 1610,3130 1690,3124 C 1726,3122 1773,3117 1795,3114 C 1817,3111 1857,3106 1883,3104 C 1910,3101 1971,3090 2018,3079 C 2066,3068 2182,3052 2275,3044 C 2369,3037 2472,3026 2505,3021 C 2538,3016 2617,3004 2680,2995 C 2743,2987 2828,2972 2869,2964 C 2909,2955 2956,2947 2974,2945 C 2991,2944 3012,2940 3020,2937 C 3028,2934 3055,2929 3080,2925 C 3105,2922 3175,2895 3235,2866 C 3396,2787 3428,2774 3497,2756 C 3563,2740 3629,2710 3668,2679 C 3681,2669 3715,2654 3744,2646 C 3773,2637 3805,2621 3816,2609 C 3830,2592 3831,2588 3819,2592 C 3811,2595 3766,2592 3719,2584 C 3673,2577 3617,2570 3595,2570 C 3558,2570 3553,2573 3545,2602 C 3538,2624 3526,2637 3506,2643 C 3490,2648 3469,2661 3459,2671 C 3432,2698 3394,2694 3325,2657 C 3195,2587 3184,2445 3303,2356 C 3362,2312 3451,2348 3515,2442 L 3545,2487 L 3664,2494 C 3729,2498 3784,2499 3786,2497 C 3789,2495 3760,2472 3723,2447 C 3685,2421 3628,2380 3595,2355 C 3562,2330 3530,2312 3522,2315 C 3515,2317 3511,2316 3514,2311 C 3519,2303 3449,2240 3435,2240 C 3431,2240 3403,2218 3371,2190 C 3339,2163 3308,2140 3302,2140 C 3296,2140 3286,2131 3280,2120 C 3274,2109 3263,2100 3255,2100 C 3247,2100 3240,2094 3240,2087 C 3240,2080 3225,2060 3207,2042 C 3176,2012 3173,2011 3133,2022 C 3109,2027 3082,2029 3073,2025 C 3055,2017 2772,2017 2760,2025 C 2757,2027 2695,2032 2624,2035 C 2553,2039 2426,2048 2341,2056 C 2256,2065 2169,2070 2146,2069 C 2123,2067 2058,2069 2000,2073 C 1942,2077 1848,2083 1790,2086 C 1732,2090 1672,2094 1655,2095 C 1594,2100 1411,2110 1255,2115 C 1121,2120 427,2122 310,2118 C 291,2118 255,2118 232,2119 L 188,2120 L 194,2283 C 197,2372 204,2472 210,2505 C 216,2538 223,2581 225,2600 C 233,2666 285,2910 302,2960 C 308,2979 314,3043 314,3101 L 315,3206 L 666,3205 C 860,3203 1022,3200 1026,3197 z M 5676,2986 C 5697,2978 5702,2914 5684,2877 C 5661,2829 5588,2795 5530,2804 C 5477,2812 5461,2828 5454,2882 C 5447,2931 5459,2947 5525,2979 C 5559,2995 5638,2999 5676,2986 z M 3430,2585 C 3437,2576 3452,2571 3464,2572 C 3482,2575 3485,2570 3484,2536 C 3483,2503 3475,2489 3442,2458 C 3396,2416 3364,2410 3332,2438 C 3279,2485 3286,2547 3349,2580 C 3393,2603 3414,2605 3430,2585 z"
       id="path2715" />
    <path
       d="M 6420,6228 C 6380,6217 6365,6204 6356,6174 C 6347,6144 6371,6137 6423,6155 C 6483,6176 6496,6174 6521,6139 C 6545,6105 6533,6106 6698,6127 C 6727,6130 6767,6125 6820,6109 C 6897,6087 6900,6087 6987,6103 C 7095,6122 7101,6122 7174,6098 C 7224,6082 7247,6080 7324,6087 C 7440,6097 7442,6097 7479,6059 C 7509,6029 7514,6028 7583,6030 C 7622,6032 7690,6032 7732,6031 C 7805,6030 7810,6029 7822,6003 L 7835,5976 L 7985,5975 C 8068,5974 8169,5970 8211,5966 C 8294,5958 8287,5953 8281,6013 C 8280,6017 8269,6020 8255,6020 C 8225,6020 8159,6046 8149,6062 C 8144,6070 8130,6070 8096,6060 C 8040,6045 7887,6055 7870,6075 C 7864,6083 7833,6092 7802,6096 C 7771,6100 7738,6104 7730,6106 C 7722,6107 7676,6109 7628,6109 C 7546,6110 7539,6112 7515,6138 C 7490,6165 7489,6165 7352,6165 C 7253,6166 7197,6171 7152,6183 C 7092,6200 7084,6200 7020,6184 C 6947,6167 6909,6168 6815,6194 C 6782,6204 6751,6211 6745,6212 C 6734,6213 6663,6203 6613,6194 C 6587,6189 6576,6193 6557,6214 C 6530,6242 6486,6247 6420,6228 z"
       id="path2717" />
    <path
       d="M 6465,5692 C 6449,5691 6426,5685 6415,5680 C 6404,5676 6382,5669 6367,5665 C 6317,5655 6310,5580 6359,5580 C 6368,5580 6385,5587 6397,5595 C 6408,5603 6435,5612 6456,5616 C 6489,5621 6500,5617 6524,5596 C 6557,5568 6594,5561 6655,5572 C 6749,5588 6788,5588 6889,5573 C 7011,5554 7077,5552 7173,5564 C 7241,5573 7242,5573 7265,5544 C 7287,5516 7291,5515 7384,5514 C 7437,5513 7504,5518 7533,5525 C 7561,5532 7604,5541 7628,5544 C 7665,5550 7670,5548 7670,5531 C 7670,5520 7677,5504 7687,5495 C 7706,5476 7748,5478 7907,5508 C 8028,5530 8061,5527 8100,5489 C 8130,5459 8138,5457 8255,5456 C 8310,5455 8328,5459 8338,5472 C 8352,5492 8345,5533 8324,5551 C 8313,5560 8310,5558 8310,5542 C 8310,5524 8305,5522 8268,5526 C 8178,5536 8157,5542 8136,5565 C 8119,5584 8102,5589 8048,5592 C 7984,5596 7824,5579 7788,5565 C 7777,5560 7762,5567 7745,5584 C 7714,5615 7697,5616 7539,5594 C 7407,5575 7344,5580 7309,5613 C 7287,5634 7276,5635 7110,5636 C 6993,5637 6918,5642 6885,5651 C 6852,5660 6815,5663 6775,5659 C 6657,5646 6587,5649 6555,5668 C 6515,5692 6501,5696 6465,5692 z"
       id="path2719" />
    <path
       d="M 6430,5163 C 6411,5162 6363,5155 6324,5149 C 6265,5140 6250,5133 6242,5115 C 6234,5098 6235,5087 6244,5075 C 6255,5060 6261,5060 6315,5074 C 6415,5099 6503,5110 6545,5103 C 6586,5097 6611,5075 6603,5054 C 6601,5048 6605,5026 6614,5007 C 6638,4949 6652,4949 6924,5006 C 7011,5024 7035,5024 7065,5004 C 7090,4987 7125,4988 7261,5009 C 7296,5014 7364,5021 7411,5025 L 7497,5032 L 7528,5000 C 7564,4965 7570,4964 7735,4994 C 7846,5013 7873,5010 7906,4975 C 7930,4949 7934,4948 7997,4955 C 8033,4959 8097,4968 8137,4976 C 8244,4996 8298,4995 8318,4970 C 8335,4950 8335,4950 8367,4975 C 8393,4996 8397,5004 8391,5028 C 8381,5064 8347,5069 8205,5053 C 7957,5025 7974,5025 7939,5055 C 7907,5081 7904,5082 7821,5075 C 7774,5072 7708,5065 7675,5059 C 7592,5047 7591,5047 7578,5075 C 7563,5109 7535,5114 7453,5101 C 7379,5088 7342,5084 7209,5074 C 7144,5070 7116,5072 7095,5082 C 7067,5097 7055,5096 6880,5065 C 6833,5056 6770,5047 6739,5044 C 6684,5038 6682,5039 6676,5065 C 6653,5155 6592,5179 6430,5163 z"
       id="path2721" />
    <path
       d="M 1551,4781 C 1545,4770 1533,4715 1525,4659 C 1516,4602 1505,4551 1500,4546 C 1493,4539 1490,4540 1490,4548 C 1490,4573 1442,4580 1393,4564 C 1292,4529 1259,4481 1257,4363 C 1255,4302 1258,4289 1275,4276 C 1294,4261 1370,4257 1370,4270 C 1370,4273 1385,4283 1403,4293 C 1421,4303 1451,4333 1469,4360 C 1488,4388 1505,4410 1508,4410 C 1510,4410 1510,4363 1508,4305 C 1503,4196 1509,4165 1531,4187 C 1540,4196 1547,4197 1557,4188 C 1564,4182 1573,4180 1577,4184 C 1580,4187 1585,4270 1587,4367 C 1589,4465 1595,4595 1599,4655 C 1608,4767 1602,4800 1575,4800 C 1567,4800 1556,4791 1551,4781 z M 1480,4487 C 1480,4470 1432,4404 1399,4373 C 1386,4361 1362,4348 1347,4345 C 1319,4338 1319,4338 1324,4378 C 1327,4401 1334,4428 1340,4439 C 1362,4482 1480,4521 1480,4487 z"
       id="path2723" />
    <path
       d="M 2311,4782 C 2300,4761 2292,4717 2285,4630 C 2272,4469 2251,4406 2183,4323 C 2141,4272 2074,4241 2053,4263 C 2031,4285 2033,4365 2055,4390 C 2087,4425 2139,4452 2163,4446 C 2196,4438 2212,4452 2204,4484 C 2194,4524 2168,4534 2110,4520 C 2074,4511 2051,4498 2026,4470 C 1975,4414 1967,4393 1967,4319 C 1966,4238 1984,4205 2037,4191 C 2093,4175 2142,4194 2204,4257 C 2233,4286 2260,4307 2264,4303 C 2267,4300 2270,4266 2270,4229 C 2270,4192 2275,4138 2281,4110 C 2291,4065 2294,4060 2318,4060 C 2368,4060 2390,4070 2380,4089 C 2342,4163 2334,4362 2358,4623 C 2371,4765 2366,4800 2335,4800 C 2327,4800 2316,4792 2311,4782 z"
       id="path2725" />
    <path
       d="M 822,4576 C 784,4540 750,4510 746,4510 C 743,4510 740,4532 740,4558 C 740,4584 735,4611 728,4618 C 709,4637 682,4632 675,4609 C 667,4584 659,4292 666,4270 C 670,4254 706,4250 727,4263 C 732,4266 740,4292 743,4320 C 751,4384 789,4455 846,4511 C 902,4566 906,4556 890,4404 C 884,4340 882,4284 887,4280 C 891,4275 907,4274 921,4277 C 942,4281 950,4292 964,4336 C 973,4366 985,4390 991,4390 C 996,4390 1000,4396 1000,4403 C 1000,4419 1088,4520 1102,4520 C 1108,4520 1110,4493 1106,4448 C 1092,4271 1092,4278 1125,4269 C 1143,4264 1159,4265 1165,4271 C 1179,4285 1184,4478 1171,4542 C 1162,4584 1154,4600 1135,4608 C 1114,4618 1106,4614 1063,4577 C 1037,4554 1008,4527 999,4518 C 976,4493 970,4496 970,4533 C 970,4576 938,4634 912,4638 C 898,4640 870,4620 822,4576 z"
       id="path2727" />
    <path
       d="M 1813,4580 C 1774,4571 1702,4530 1673,4498 C 1660,4485 1648,4460 1644,4443 C 1637,4407 1649,4396 1754,4345 C 1815,4315 1841,4280 1803,4280 C 1792,4280 1780,4276 1775,4271 C 1769,4265 1750,4258 1731,4255 C 1685,4247 1680,4243 1680,4214 C 1680,4195 1688,4185 1716,4174 C 1743,4162 1755,4162 1760,4170 C 1764,4176 1769,4181 1771,4180 C 1773,4179 1788,4183 1803,4189 C 1819,4195 1834,4200 1837,4200 C 1846,4200 1900,4262 1901,4274 C 1906,4323 1851,4392 1791,4411 C 1733,4430 1726,4439 1752,4467 C 1781,4498 1840,4516 1867,4502 C 1906,4481 1928,4541 1892,4570 C 1872,4587 1857,4589 1813,4580 z"
       id="path2729" />
    <path
       d="M 6253,4038 C 6157,4019 6150,4016 6150,3988 C 6150,3968 6154,3968 6218,3974 C 6255,3978 6326,3984 6377,3987 L 6469,3992 L 6484,3961 C 6505,3922 6537,3914 6613,3928 C 6646,3934 6677,3937 6681,3934 C 6686,3931 6690,3934 6690,3940 C 6690,3946 6694,3949 6699,3946 C 6704,3942 6720,3944 6734,3950 C 6751,3956 6761,3956 6766,3949 C 6770,3941 6775,3942 6780,3950 C 6785,3958 6818,3965 6862,3968 C 6922,3971 6942,3969 6963,3955 C 6984,3942 7000,3940 7042,3945 C 7112,3955 7181,3959 7320,3960 C 7462,3961 7539,3953 7557,3934 C 7567,3924 7596,3920 7654,3920 C 7709,3920 7747,3915 7768,3904 C 7791,3893 7804,3892 7819,3899 C 7830,3905 7867,3910 7902,3910 C 7983,3910 8073,3915 8183,3925 C 8248,3931 8277,3930 8294,3920 C 8347,3892 8379,3957 8331,3995 C 8317,4006 8302,4014 8297,4012 C 8258,4000 7897,3982 7800,3987 C 7764,3990 7709,3992 7678,3994 C 7647,3995 7613,4003 7604,4011 C 7590,4022 7532,4025 7300,4026 C 7142,4026 7008,4030 7001,4034 C 6986,4044 6828,4034 6745,4019 C 6712,4013 6658,4004 6625,4000 C 6567,3993 6564,3994 6532,4023 C 6502,4052 6495,4054 6417,4055 C 6372,4055 6298,4048 6253,4038 z"
       id="path2731" />
    <path
       d="M 6245,3620 C 6234,3615 6211,3611 6195,3611 C 6156,3610 6140,3594 6140,3558 C 6140,3525 6147,3524 6227,3545 C 6309,3566 6318,3565 6334,3526 C 6342,3507 6358,3486 6371,3480 C 6393,3468 6495,3471 6710,3489 C 6763,3493 6830,3491 6890,3483 C 6942,3476 7048,3470 7124,3470 C 7242,3469 7271,3466 7309,3449 C 7349,3431 7367,3429 7450,3435 C 7502,3439 7548,3444 7551,3446 C 7555,3448 7580,3438 7606,3424 C 7649,3401 7662,3399 7710,3405 C 7740,3409 7777,3413 7793,3414 C 7808,3414 7820,3418 7820,3421 C 7820,3424 7850,3435 7888,3445 C 7925,3455 7963,3467 7972,3472 C 7989,3480 8062,3497 8129,3507 C 8153,3511 8170,3506 8191,3491 C 8226,3465 8246,3464 8260,3490 C 8266,3501 8276,3508 8283,3505 C 8290,3501 8286,3506 8275,3515 C 8264,3524 8255,3536 8255,3543 C 8255,3550 8239,3563 8220,3572 C 8177,3592 8153,3588 7880,3511 C 7839,3499 7773,3487 7735,3484 C 7674,3479 7662,3481 7641,3499 C 7628,3510 7614,3517 7610,3515 C 7605,3512 7557,3508 7502,3505 C 7427,3501 7392,3503 7363,3514 C 7337,3524 7270,3530 7155,3534 C 7062,3536 6965,3542 6940,3547 C 6893,3555 6791,3556 6560,3552 C 6486,3550 6417,3552 6408,3555 C 6399,3559 6382,3577 6371,3596 C 6353,3627 6346,3630 6308,3629 C 6284,3629 6256,3625 6245,3620 z"
       id="path2733" />
    <path
       d="M 6495,3089 C 6432,3081 6303,3067 6270,3065 C 6183,3058 6103,3046 6088,3038 C 6066,3027 6064,2981 6086,2973 C 6094,2970 6170,2979 6253,2993 C 6432,3024 6625,3043 6679,3034 C 6713,3029 6719,3023 6729,2990 C 6736,2965 6748,2949 6762,2944 C 6786,2937 6859,2937 6910,2945 C 6929,2948 7044,2953 7165,2956 L 7386,2961 L 7403,2924 L 7421,2887 L 7548,2896 C 7618,2900 7704,2903 7740,2901 C 7867,2897 8086,2896 8155,2900 C 8194,2902 8263,2903 8309,2901 C 8371,2898 8394,2901 8401,2911 C 8414,2932 8412,2950 8395,2950 C 8387,2950 8380,2954 8380,2959 C 8380,2965 8276,2969 8118,2969 C 7973,2969 7821,2969 7780,2971 C 7739,2972 7652,2970 7587,2966 L 7470,2960 L 7459,2984 C 7452,2998 7440,3012 7431,3015 C 7410,3023 6939,3023 6894,3014 C 6842,3004 6790,3017 6790,3039 C 6790,3076 6744,3093 6641,3094 C 6588,3095 6522,3092 6495,3089 z"
       id="path2735" />
    <path
       d="M 1035,3101 C 1026,3072 1027,2989 1037,2964 C 1048,2934 1090,2949 1090,2982 C 1090,2995 1097,3016 1105,3028 C 1122,3052 1120,3056 1063,3103 C 1042,3121 1042,3121 1035,3101 z"
       id="path2737" />
    <path
       d="M 1221,3058 C 1215,3034 1205,2984 1199,2945 C 1176,2783 1181,2797 1144,2803 C 1082,2813 1066,2744 1127,2728 C 1145,2723 1161,2716 1164,2711 C 1167,2707 1165,2676 1159,2644 C 1141,2540 1134,2470 1140,2460 C 1149,2445 1204,2453 1212,2471 C 1216,2481 1224,2542 1231,2608 C 1244,2738 1244,2739 1310,2740 C 1345,2740 1358,2751 1364,2782 C 1370,2819 1349,2834 1301,2826 C 1280,2823 1261,2823 1258,2825 C 1255,2828 1257,2852 1262,2878 C 1272,2928 1283,3032 1282,3064 C 1281,3084 1264,3100 1244,3100 C 1238,3100 1227,3081 1221,3058 z"
       id="path2739" />
    <path
       d="M 735,2910 C 687,2899 645,2874 633,2848 C 586,2749 591,2723 665,2678 C 695,2660 720,2642 720,2638 C 720,2631 703,2625 650,2615 C 559,2598 542,2590 537,2564 C 534,2546 539,2531 551,2519 C 571,2499 610,2493 610,2509 C 610,2524 650,2533 664,2521 C 674,2512 679,2513 683,2523 C 686,2531 709,2539 735,2542 C 791,2549 809,2564 816,2612 C 821,2642 818,2651 789,2679 C 770,2697 738,2723 718,2737 C 697,2751 680,2767 680,2772 C 680,2777 691,2792 705,2805 C 723,2824 740,2830 773,2830 C 796,2830 821,2825 828,2818 C 843,2803 890,2823 890,2845 C 890,2866 845,2910 823,2911 C 813,2911 796,2913 785,2914 C 774,2916 752,2914 735,2910 z"
       id="path2741" />
    <path
       d="M 1529,2862 C 1514,2860 1471,2832 1433,2800 C 1337,2720 1319,2671 1335,2545 C 1350,2433 1388,2407 1525,2415 C 1575,2417 1638,2425 1665,2432 C 1708,2443 1715,2448 1715,2470 C 1715,2489 1710,2495 1695,2493 C 1443,2469 1411,2478 1410,2578 C 1410,2601 1415,2610 1426,2610 C 1448,2610 1589,2661 1596,2671 C 1599,2676 1610,2680 1620,2680 C 1642,2680 1665,2739 1656,2774 C 1642,2830 1586,2869 1529,2862 z M 1588,2762 C 1593,2747 1496,2700 1460,2700 C 1435,2700 1436,2701 1470,2733 C 1489,2752 1512,2769 1520,2773 C 1544,2782 1583,2776 1588,2762 z"
       id="path2743" />
    <path
       d="M 963,2828 C 956,2810 949,2766 945,2730 C 942,2694 936,2647 933,2625 C 929,2603 926,2563 926,2535 C 925,2486 925,2486 958,2484 C 984,2483 991,2487 994,2504 C 1002,2543 1011,2615 1011,2635 C 1011,2646 1015,2693 1020,2739 C 1028,2812 1027,2826 1013,2842 C 989,2868 975,2864 963,2828 z"
       id="path2745" />
    <path
       d="M 2285,2763 C 2243,2753 2184,2720 2158,2693 C 2083,2613 2080,2461 2152,2393 C 2187,2360 2303,2340 2327,2363 C 2330,2367 2341,2370 2350,2370 C 2379,2370 2472,2422 2466,2435 C 2464,2443 2468,2451 2476,2454 C 2484,2457 2490,2464 2490,2470 C 2490,2482 2458,2483 2444,2472 C 2401,2434 2236,2422 2201,2454 C 2177,2476 2174,2490 2193,2490 C 2201,2490 2231,2500 2261,2513 C 2388,2565 2437,2624 2410,2689 C 2389,2742 2334,2774 2285,2763 z M 2339,2671 C 2347,2657 2345,2649 2332,2638 C 2296,2608 2260,2590 2221,2584 C 2185,2578 2180,2580 2180,2597 C 2180,2621 2214,2653 2260,2673 C 2308,2694 2328,2693 2339,2671 z"
       id="path2747" />
    <path
       d="M 1809,2737 C 1754,2705 1726,2647 1734,2580 C 1743,2496 1744,2491 1750,2495 C 1754,2497 1775,2490 1798,2478 C 1829,2463 1850,2460 1875,2464 C 1894,2468 1910,2474 1910,2478 C 1910,2485 1957,2506 1977,2510 C 1986,2511 1989,2489 1991,2396 C 1993,2332 1990,2314 1976,2305 C 1955,2289 1886,2301 1860,2325 C 1844,2340 1838,2340 1825,2330 C 1811,2318 1811,2294 1825,2258 C 1834,2235 1891,2210 1937,2210 C 1985,2210 2041,2238 2057,2269 C 2074,2305 2064,2710 2046,2729 C 2030,2744 1990,2735 1990,2717 C 1990,2710 1984,2716 1977,2730 C 1966,2752 1958,2755 1905,2757 C 1860,2758 1836,2753 1809,2737 z M 1990,2683 C 1989,2653 1952,2580 1937,2580 C 1929,2580 1917,2574 1911,2566 C 1890,2541 1841,2536 1819,2556 C 1767,2603 1830,2680 1921,2680 C 1948,2680 1970,2685 1970,2690 C 1970,2696 1975,2700 1980,2700 C 1986,2700 1990,2692 1990,2683 z"
       id="path2749" />
    <path
       d="M 2574,2689 C 2570,2683 2566,2657 2564,2631 C 2557,2531 2551,2476 2539,2423 C 2527,2372 2528,2366 2545,2354 C 2555,2346 2566,2343 2569,2348 C 2572,2352 2584,2360 2595,2366 C 2606,2372 2617,2390 2621,2406 C 2630,2452 2655,2492 2709,2549 C 2791,2635 2814,2604 2808,2415 L 2805,2295 L 2837,2292 C 2878,2288 2881,2299 2882,2442 C 2882,2570 2864,2632 2815,2664 C 2779,2688 2753,2680 2692,2625 C 2665,2600 2640,2580 2637,2580 C 2634,2580 2631,2597 2632,2618 C 2632,2640 2629,2667 2625,2678 C 2618,2701 2586,2708 2574,2689 z"
       id="path2751" />
    <path
       d="M 1412,6868 C 1406,6861 1399,6821 1395,6780 C 1392,6739 1387,6685 1384,6661 L 1378,6618 L 1324,6622 C 1267,6627 1257,6622 1247,6582 C 1239,6550 1275,6517 1302,6531 C 1312,6537 1332,6540 1346,6538 L 1372,6535 L 1375,6400 C 1377,6326 1379,6259 1379,6252 C 1381,6230 1423,6220 1443,6238 C 1457,6251 1460,6264 1455,6309 C 1441,6468 1440,6541 1453,6546 C 1460,6548 1506,6552 1555,6553 L 1645,6556 L 1648,6586 C 1653,6632 1623,6654 1573,6641 C 1552,6636 1517,6630 1495,6628 C 1456,6625 1455,6626 1456,6655 C 1457,6701 1469,6806 1476,6823 C 1490,6861 1438,6898 1412,6868 z"
       id="path2753" />
    <path
       d="M 1951,6852 C 1946,6842 1937,6808 1931,6775 C 1925,6742 1909,6684 1895,6646 C 1881,6608 1870,6575 1870,6573 C 1870,6571 1845,6573 1815,6576 C 1739,6585 1701,6559 1641,6456 C 1609,6402 1606,6303 1634,6271 C 1688,6211 1798,6290 1875,6445 L 1919,6535 L 1921,6465 C 1922,6427 1923,6365 1924,6328 C 1925,6269 1928,6258 1948,6244 C 1970,6229 1973,6229 1991,6246 C 2007,6260 2010,6272 2005,6304 C 1995,6377 1993,6562 2000,6700 C 2004,6777 2003,6843 1998,6853 C 1987,6875 1963,6875 1951,6852 z M 1820,6483 C 1820,6454 1721,6340 1696,6340 C 1674,6340 1697,6411 1732,6454 C 1754,6480 1769,6490 1791,6490 C 1807,6490 1820,6487 1820,6483 z"
       id="path2755" />
    <path
       d="M 2154,6832 C 2143,6825 2130,6773 2129,6737 C 2129,6727 2117,6661 2103,6592 C 2058,6368 2058,6370 2165,6364 C 2202,6362 2235,6359 2237,6356 C 2243,6351 2243,6296 2239,6228 C 2238,6201 2242,6175 2249,6166 C 2261,6152 2265,6152 2291,6166 C 2324,6183 2323,6178 2321,6287 L 2320,6370 L 2382,6366 C 2417,6364 2459,6359 2475,6355 C 2494,6351 2512,6354 2523,6362 C 2538,6373 2539,6380 2529,6408 C 2521,6433 2512,6440 2492,6441 C 2477,6442 2461,6443 2455,6445 C 2450,6446 2420,6448 2389,6448 L 2332,6450 L 2337,6515 C 2341,6568 2338,6581 2326,6586 C 2300,6596 2281,6571 2268,6510 C 2255,6447 2242,6436 2190,6447 C 2158,6453 2158,6455 2186,6633 C 2194,6689 2204,6752 2207,6772 C 2215,6824 2188,6855 2154,6832 z"
       id="path2757" />
    <path
       d="M 2642,6818 C 2632,6805 2626,6743 2629,6685 C 2630,6662 2632,6658 2640,6670 C 2646,6680 2650,6681 2650,6673 C 2650,6654 2662,6657 2691,6683 C 2713,6701 2716,6709 2708,6730 C 2703,6744 2701,6762 2703,6772 C 2709,6792 2684,6830 2666,6830 C 2658,6830 2648,6824 2642,6818 z"
       id="path2759" />
    <path
       d="M 2632,6533 C 2627,6523 2624,6499 2625,6480 C 2631,6400 2630,6110 2624,6086 C 2617,6057 2612,6055 2573,6072 C 2532,6090 2510,6111 2510,6133 C 2510,6151 2508,6150 2490,6127 C 2471,6104 2470,6096 2481,6062 C 2498,6004 2583,5966 2643,5989 C 2695,6009 2703,6049 2703,6287 C 2703,6468 2700,6503 2686,6525 C 2667,6554 2644,6557 2632,6533 z"
       id="path2761" />
    <path
       d="M 11440,6291 C 11290,6285 11284,6284 11249,6257 C 11205,6224 11202,6208 11194,6015 C 11187,5829 11183,5785 11161,5645 C 11155,5607 11148,5541 11145,5500 C 11136,5370 11120,5266 11109,5259 C 11101,5254 11101,5251 11109,5245 C 11116,5242 11119,5231 11116,5222 C 11111,5205 11107,5172 11095,5043 C 11091,5003 11085,4970 11081,4970 C 11078,4970 11075,4955 11075,4938 C 11075,4898 11053,4735 11033,4620 C 11025,4573 11014,4497 11009,4450 C 10999,4350 10983,4235 10970,4165 C 10965,4138 10956,4087 10950,4053 C 10945,4018 10936,3964 10930,3933 C 10907,3801 10888,3680 10880,3611 C 10874,3570 10864,3533 10858,3528 C 10848,3522 10848,3520 10858,3520 C 10865,3520 10869,3516 10866,3512 C 10863,3507 10859,3482 10856,3454 C 10842,3325 10755,2797 10744,2779 C 10742,2775 10738,2755 10735,2734 C 10732,2712 10725,2675 10720,2650 C 10714,2625 10708,2589 10706,2570 C 10697,2498 10668,2324 10659,2290 C 10650,2255 10644,2214 10634,2110 C 10631,2080 10625,2052 10621,2048 C 10617,2044 10617,2017 10620,1988 C 10624,1942 10628,1935 10646,1935 C 10658,1934 10674,1929 10681,1924 C 10705,1905 10812,1873 10889,1861 C 10930,1854 11041,1849 11136,1849 C 11234,1850 11310,1846 11310,1840 C 11310,1835 11322,1835 11339,1840 C 11355,1844 11371,1846 11373,1843 C 11376,1841 11400,1837 11427,1835 C 11477,1832 11555,1825 11705,1809 C 11755,1804 11838,1795 11891,1790 C 12133,1767 12293,1746 12520,1705 C 12814,1652 12885,1641 12970,1636 C 13006,1634 13051,1630 13070,1627 C 13089,1624 13132,1618 13165,1615 C 13198,1611 13277,1593 13340,1573 C 13420,1549 13504,1533 13615,1520 C 13710,1508 13797,1492 13830,1480 C 13860,1468 13931,1450 13987,1440 C 14044,1429 14116,1409 14147,1394 C 14179,1380 14237,1361 14275,1353 C 14367,1333 14458,1291 14462,1265 C 14466,1236 14494,1235 14530,1262 C 14558,1282 14561,1289 14557,1322 C 14554,1342 14554,1361 14556,1363 C 14559,1365 14563,1421 14565,1486 C 14570,1624 14577,1691 14590,1740 C 14596,1759 14600,1788 14600,1804 C 14600,1829 14603,1832 14623,1826 C 14635,1823 14687,1813 14738,1805 C 14790,1796 14848,1783 14868,1775 C 14888,1768 14927,1759 14954,1756 C 14981,1753 15060,1731 15129,1709 C 15264,1664 15270,1662 15345,1630 C 15373,1618 15402,1607 15410,1605 C 15455,1594 15491,1580 15536,1556 C 15563,1542 15591,1530 15598,1530 C 15606,1530 15608,1522 15604,1505 C 15600,1490 15603,1473 15610,1465 C 15617,1457 15630,1436 15639,1420 C 15665,1371 15801,1201 15829,1181 C 15843,1171 15889,1145 15931,1123 C 15972,1101 16021,1072 16039,1059 C 16075,1032 16180,901 16180,882 C 16180,875 16184,870 16188,870 C 16192,870 16206,850 16217,826 L 16239,782 L 16312,776 C 16352,773 16433,768 16492,765 C 16550,761 16613,757 16632,755 C 16650,752 16685,748 16709,745 C 16793,735 16937,710 17085,679 C 17168,662 17246,647 17260,644 C 17274,641 17311,633 17343,625 C 17375,617 17415,610 17431,610 C 17447,610 17515,599 17582,585 C 17650,571 17732,555 17765,549 C 17798,543 17845,534 17870,529 C 17895,524 17926,517 17939,515 C 17984,507 18154,470 18195,460 C 18234,451 18292,440 18450,414 C 18469,411 18532,393 18590,375 C 18648,356 18721,333 18753,324 C 18786,315 18816,300 18823,289 C 18839,264 18854,265 18886,295 C 18905,312 18913,331 18915,362 C 18922,446 18932,487 19000,700 C 19027,785 19059,909 19070,975 C 19091,1091 19126,1271 19156,1415 C 19173,1499 19169,1522 19133,1540 C 19109,1551 18840,1591 18785,1591 C 18775,1591 18760,1596 18752,1603 C 18744,1609 18728,1615 18717,1617 C 18705,1619 18659,1629 18615,1639 C 18571,1650 18515,1661 18490,1664 C 18465,1666 18438,1671 18430,1674 C 18422,1677 18397,1681 18375,1684 C 18323,1690 18138,1724 18025,1749 C 17814,1795 17647,1833 17535,1860 C 17291,1919 17240,1930 17065,1966 C 16966,1985 16876,2003 16865,2005 C 16854,2007 16788,2016 16719,2025 C 16649,2033 16540,2049 16475,2060 C 16326,2085 16313,2085 16299,2058 C 16285,2030 16240,1991 16223,1990 C 16216,1990 16210,1986 16210,1981 C 16210,1976 16182,1950 16148,1924 C 16113,1898 16078,1871 16070,1863 C 16046,1842 15962,1780 15955,1780 C 15942,1780 15742,1631 15720,1606 C 15702,1583 15680,1586 15608,1619 C 15573,1635 15514,1657 15477,1669 C 15439,1680 15394,1696 15377,1704 C 15359,1711 15316,1726 15280,1735 C 15244,1745 15202,1760 15187,1767 C 15125,1798 14849,1863 14735,1874 C 14665,1881 14627,1890 14616,1900 C 14607,1909 14616,1962 14659,2150 C 14691,2286 14706,2358 14726,2467 C 14739,2536 14747,2564 14753,2552 C 14758,2541 14759,2545 14756,2564 C 14754,2580 14758,2614 14765,2639 C 14772,2664 14786,2723 14795,2770 C 14803,2817 14815,2875 14820,2900 C 14825,2925 14832,2963 14835,2985 C 14839,3007 14844,3032 14847,3040 C 14855,3061 14858,3076 14870,3150 C 14876,3186 14884,3231 14888,3250 L 14896,3285 L 15005,3288 C 15066,3289 15134,3286 15158,3280 C 15181,3274 15260,3267 15333,3264 C 15473,3259 15559,3250 15705,3225 C 15755,3216 15824,3205 15860,3199 C 15902,3193 15929,3183 15937,3172 C 15944,3163 15954,3150 15960,3143 C 15965,3136 15970,3127 15970,3123 C 15970,3112 16041,3059 16137,2998 C 16176,2972 16232,2929 16260,2901 C 16289,2873 16314,2850 16317,2850 C 16320,2850 16353,2825 16391,2795 C 16435,2759 16463,2728 16471,2706 C 16478,2687 16492,2669 16502,2666 C 16513,2664 16524,2652 16527,2641 C 16530,2629 16539,2620 16548,2620 C 16556,2620 16571,2613 16580,2605 C 16591,2595 16635,2586 16706,2580 C 16897,2562 16935,2558 16940,2555 C 16943,2553 16997,2543 17060,2531 C 17123,2520 17189,2508 17205,2505 C 17248,2497 17429,2469 17470,2464 C 17489,2462 17512,2457 17520,2455 C 17528,2452 17554,2448 17576,2445 C 17599,2442 17671,2426 17736,2409 C 17802,2391 17894,2367 17942,2355 C 17990,2342 18033,2329 18039,2326 C 18049,2320 18117,2304 18180,2294 C 18199,2290 18247,2279 18285,2269 C 18401,2238 18399,2238 18423,2263 C 18452,2291 18459,2319 18525,2635 C 18533,2674 18549,2746 18560,2795 C 18583,2897 18609,3043 18615,3110 C 18621,3169 18638,3249 18661,3331 C 18684,3411 18685,3434 18665,3450 C 18657,3457 18650,3459 18650,3455 C 18650,3451 18643,3453 18635,3460 C 18627,3466 18599,3474 18573,3477 C 18547,3480 18521,3485 18515,3489 C 18510,3493 18489,3497 18470,3499 C 18451,3501 18431,3504 18426,3507 C 18421,3511 18400,3514 18380,3515 C 18360,3516 18328,3522 18309,3528 C 18290,3534 18257,3541 18235,3545 C 18213,3549 18184,3554 18170,3556 C 18156,3559 18118,3565 18085,3571 C 18052,3576 17971,3592 17905,3605 C 17839,3618 17731,3639 17666,3650 C 17600,3661 17542,3673 17537,3677 C 17532,3680 17507,3684 17482,3686 C 17438,3690 17241,3728 17229,3736 C 17225,3738 17201,3742 17174,3745 C 17147,3749 17107,3755 17085,3760 C 17063,3765 17028,3770 17008,3770 C 16988,3770 16968,3775 16965,3780 C 16961,3786 16955,3788 16950,3785 C 16945,3782 16871,3784 16785,3790 C 16700,3796 16621,3798 16610,3795 C 16600,3792 16588,3779 16584,3767 C 16572,3728 16553,3711 16429,3635 C 16365,3595 16253,3516 16221,3488 C 16213,3481 16199,3471 16189,3465 C 16180,3460 16156,3441 16137,3424 C 16118,3406 16079,3376 16049,3356 C 16019,3337 15987,3310 15977,3297 L 15960,3273 L 15837,3291 C 15609,3323 15455,3340 15331,3345 C 15262,3349 15203,3353 15200,3355 C 15196,3357 15138,3364 15070,3369 C 15002,3375 14943,3383 14938,3388 C 14934,3392 14936,3432 14945,3476 C 14953,3519 14966,3614 14975,3685 C 14984,3757 15005,3897 15022,3998 C 15047,4143 15057,4180 15069,4180 C 15083,4180 15083,4182 15071,4189 C 15058,4197 15058,4209 15068,4262 C 15085,4359 15092,4403 15095,4430 C 15097,4444 15104,4487 15111,4527 L 15123,4599 L 15219,4631 C 15272,4648 15333,4671 15355,4681 C 15377,4691 15415,4704 15440,4710 C 15465,4717 15523,4738 15570,4757 C 15617,4776 15678,4799 15705,4807 C 15761,4823 15823,4851 15828,4863 C 15830,4867 15841,4870 15851,4870 C 15862,4870 15906,4890 15948,4914 C 15990,4939 16039,4962 16055,4966 C 16072,4970 16091,4977 16098,4983 C 16104,4988 16110,4989 16110,4985 C 16110,4980 16118,4984 16128,4993 C 16146,5009 16215,5038 16350,5085 C 16386,5098 16446,5120 16485,5134 C 16523,5148 16564,5160 16575,5160 C 16597,5160 16668,5105 16737,5035 C 16761,5012 16785,4990 16792,4986 C 16824,4971 16974,4859 17020,4816 C 17047,4790 17070,4760 17070,4749 C 17070,4719 17109,4710 17261,4705 C 17337,4702 17452,4693 17517,4684 C 17582,4676 17689,4662 17755,4654 C 17821,4646 17907,4635 17945,4630 C 18086,4612 18454,4542 18500,4524 C 18508,4521 18535,4515 18560,4510 C 18585,4506 18679,4488 18770,4471 C 18861,4453 18964,4435 19000,4429 C 19035,4424 19067,4415 19070,4409 C 19074,4404 19085,4402 19096,4406 C 19112,4411 19112,4410 19100,4401 C 19090,4394 19089,4390 19097,4390 C 19104,4390 19112,4379 19116,4365 C 19121,4346 19129,4340 19150,4340 C 19165,4340 19182,4346 19188,4353 C 19194,4359 19203,4415 19209,4476 C 19215,4537 19227,4611 19236,4641 C 19244,4671 19268,4774 19289,4870 C 19311,4966 19333,5064 19339,5086 C 19354,5143 19369,5217 19375,5265 C 19378,5287 19391,5349 19405,5404 C 19435,5523 19436,5534 19411,5559 C 19394,5576 19386,5577 19358,5569 C 19315,5557 19031,5566 18875,5584 C 18809,5592 18710,5603 18655,5609 C 18600,5615 18537,5623 18515,5625 C 18493,5628 18405,5637 18320,5645 C 18235,5654 18145,5665 18120,5670 C 18065,5682 17801,5719 17722,5726 C 17691,5728 17602,5737 17525,5745 C 17447,5753 17324,5762 17250,5766 L 17115,5773 L 17084,5746 C 17038,5705 16758,5520 16743,5520 C 16736,5520 16730,5516 16730,5511 C 16730,5506 16686,5470 16633,5432 C 16492,5331 16497,5336 16502,5279 L 16507,5231 L 16459,5211 C 16433,5199 16406,5190 16399,5190 C 16393,5190 16362,5179 16331,5166 C 16300,5153 16251,5134 16221,5125 C 16191,5116 16148,5100 16126,5090 C 16103,5080 16056,5059 16020,5045 C 15984,5030 15942,5010 15925,5000 C 15863,4963 15733,4901 15680,4884 C 15650,4875 15594,4854 15557,4839 C 15474,4805 15167,4700 15150,4700 C 15141,4700 15139,4712 15144,4743 C 15160,4845 15157,4956 15139,4945 C 15135,4942 15126,4959 15119,4982 C 15113,5006 15101,5040 15093,5059 C 15084,5078 15075,5111 15073,5134 C 15070,5157 15062,5182 15055,5190 C 15031,5218 14952,5356 14881,5495 C 14872,5511 14863,5527 14860,5530 C 14857,5533 14839,5560 14820,5590 C 14801,5620 14764,5668 14737,5696 C 14711,5725 14690,5752 14692,5756 C 14693,5761 14660,5799 14619,5840 C 14578,5881 14528,5942 14506,5975 C 14387,6159 14411,6144 14227,6147 C 14143,6148 14035,6153 13985,6159 C 13936,6165 13828,6176 13745,6185 C 13551,6205 13527,6209 13521,6218 C 13518,6222 13443,6225 13355,6226 C 13267,6226 13168,6229 13135,6233 C 13053,6243 12940,6249 12785,6251 C 12714,6251 12630,6256 12600,6260 C 12465,6281 12419,6284 12160,6285 C 12009,6286 11820,6289 11740,6292 C 11660,6294 11525,6294 11440,6291 z M 12075,6225 C 12285,6225 12460,6221 12466,6218 C 12488,6204 12641,6190 12783,6190 C 12866,6189 12978,6185 13030,6179 C 13082,6174 13215,6163 13325,6155 C 13435,6147 13536,6139 13550,6136 C 13564,6133 13640,6123 13720,6115 C 13850,6101 13905,6094 14020,6075 C 14039,6071 14075,6069 14100,6070 C 14156,6071 14272,6050 14283,6035 C 14287,6030 14288,5998 14284,5965 C 14281,5932 14272,5824 14265,5725 C 14251,5543 14245,5485 14235,5440 C 14231,5426 14225,5357 14220,5285 C 14215,5214 14206,5137 14201,5115 C 14186,5054 14184,4932 14197,4919 C 14206,4910 14224,4910 14270,4919 C 14344,4934 14710,4934 14760,4920 C 14779,4915 14814,4910 14837,4910 C 14860,4910 14881,4906 14884,4901 C 14887,4896 14902,4890 14917,4887 C 14933,4884 14969,4875 14999,4867 C 15029,4859 15060,4855 15068,4858 C 15081,4862 15082,4855 15076,4814 C 15072,4787 15066,4741 15063,4713 L 15058,4660 L 14990,4640 C 14906,4615 14910,4615 14910,4646 C 14910,4702 14857,4742 14795,4734 C 14779,4732 14745,4728 14720,4726 C 14629,4717 14590,4691 14554,4615 C 14517,4536 14526,4451 14576,4410 C 14624,4369 14721,4359 14785,4389 C 14828,4409 14853,4433 14895,4495 C 14917,4529 14931,4538 14981,4552 L 15041,4569 L 15037,4532 C 15034,4512 15028,4483 15022,4469 C 15016,4454 15014,4440 15017,4436 C 15024,4429 14999,4268 14988,4256 C 14983,4250 14980,4253 14980,4263 C 14980,4284 14993,4282 14830,4285 C 14656,4289 14524,4297 14380,4315 C 14317,4323 14227,4332 14180,4335 C 14133,4339 14084,4344 14070,4346 C 14016,4355 13868,4370 13740,4380 C 13568,4393 13486,4400 13463,4404 C 13423,4412 13111,4433 13060,4432 C 13037,4431 12764,4459 12685,4470 C 12647,4475 12561,4484 12495,4490 C 12347,4502 12295,4508 12205,4521 C 12167,4527 12119,4533 12100,4535 C 12081,4538 12034,4544 11995,4550 C 11957,4556 11909,4563 11890,4566 C 11871,4568 11835,4575 11811,4581 C 11766,4591 11723,4598 11655,4604 C 11543,4615 11479,4623 11415,4636 C 11376,4643 11304,4650 11255,4651 C 11128,4653 11120,4656 11120,4695 C 11120,4713 11124,4751 11130,4780 C 11147,4869 11171,5032 11176,5095 C 11185,5211 11232,5611 11249,5730 C 11255,5766 11261,5872 11264,5967 C 11267,6062 11272,6150 11276,6164 C 11281,6185 11291,6190 11343,6199 C 11452,6218 11473,6220 11562,6222 C 11610,6224 11650,6229 11650,6233 C 11650,6238 11660,6238 11672,6234 C 11685,6230 11866,6226 12075,6225 z M 14430,5935 C 14443,5914 14461,5888 14470,5880 C 14566,5779 14730,5579 14730,5563 C 14730,5556 14733,5550 14738,5550 C 14742,5550 14758,5526 14774,5497 C 14790,5469 14808,5439 14814,5431 C 14856,5379 14970,5148 14970,5115 C 14970,5101 14977,5087 14985,5084 C 14996,5079 15040,4985 15040,4964 C 15040,4956 14939,4970 14919,4981 C 14910,4985 14881,4990 14854,4991 C 14827,4992 14797,4997 14787,5002 C 14767,5012 14324,5015 14298,5005 C 14273,4995 14269,5015 14280,5095 C 14296,5214 14338,5608 14346,5715 C 14350,5776 14354,5829 14365,5940 C 14366,5954 14368,5978 14368,5994 L 14370,6023 L 14388,5999 C 14398,5986 14417,5957 14430,5935 z M 17520,5686 C 17701,5678 17860,5660 18093,5620 C 18237,5595 18269,5590 18330,5585 C 18366,5582 18418,5575 18445,5570 C 18473,5564 18554,5555 18625,5550 C 18697,5544 18796,5533 18845,5525 C 18895,5517 18978,5508 19030,5505 C 19120,5499 19220,5491 19248,5488 C 19254,5487 19260,5483 19260,5480 C 19260,5476 19278,5470 19300,5466 C 19322,5463 19340,5458 19340,5457 C 19340,5455 19334,5431 19326,5404 C 19318,5377 19307,5324 19300,5285 C 19293,5247 19282,5194 19274,5168 C 19266,5142 19260,5112 19260,5101 C 19260,5090 19256,5079 19251,5076 C 19246,5073 19239,5049 19235,5023 C 19231,4996 19220,4939 19210,4895 C 19200,4851 19189,4802 19186,4785 C 19183,4769 19169,4712 19155,4660 C 19142,4608 19130,4550 19130,4532 C 19130,4513 19124,4497 19116,4494 C 19102,4489 18997,4501 18895,4520 C 18798,4538 18583,4581 18385,4620 C 18275,4642 18172,4662 18155,4664 C 18116,4670 17750,4727 17635,4745 C 17585,4753 17460,4769 17356,4780 C 17164,4800 17145,4804 17155,4821 C 17159,4826 17156,4830 17150,4830 C 17144,4830 17120,4846 17097,4865 C 17074,4884 17034,4917 17009,4938 C 16983,4959 16941,4990 16915,5006 C 16842,5052 16698,5182 16709,5193 C 16721,5205 16826,5230 16868,5230 C 16891,5230 16900,5226 16900,5213 C 16900,5204 16921,5177 16946,5152 C 16989,5112 16996,5108 17030,5114 C 17093,5124 17127,5150 17161,5215 C 17197,5284 17197,5345 17161,5384 C 17150,5396 17140,5411 17140,5416 C 17140,5433 17037,5425 16995,5405 C 16973,5394 16946,5375 16935,5362 C 16916,5340 16875,5326 16800,5315 C 16781,5312 16736,5301 16699,5290 C 16663,5279 16626,5270 16617,5270 C 16589,5270 16586,5292 16611,5312 C 16624,5323 16649,5344 16666,5360 C 16692,5384 16734,5414 16790,5450 C 16798,5455 16840,5483 16883,5512 C 16926,5541 16996,5586 17038,5612 C 17080,5637 17124,5667 17135,5678 C 17156,5699 17217,5700 17520,5686 z M 17106,5316 C 17125,5301 17125,5300 17101,5255 C 17074,5205 17044,5190 17003,5209 C 16983,5218 16979,5225 16985,5243 C 16989,5255 16994,5277 16997,5292 C 17000,5307 17010,5321 17019,5323 C 17053,5332 17087,5329 17106,5316 z M 14840,4640 C 14849,4623 14847,4614 14830,4593 C 14815,4574 14811,4558 14815,4539 C 14820,4517 14815,4507 14786,4483 C 14755,4458 14743,4454 14703,4457 C 14635,4462 14610,4482 14610,4528 C 14610,4598 14672,4649 14731,4627 C 14759,4616 14764,4617 14779,4637 C 14799,4665 14826,4666 14840,4640 z M 11417,4559 C 11449,4553 11486,4549 11500,4549 C 11524,4550 11629,4537 11855,4506 C 11916,4498 12008,4486 12060,4480 C 12216,4460 12345,4442 12345,4441 C 12345,4439 12424,4434 12565,4425 C 12615,4422 12709,4413 12775,4405 C 12878,4393 13030,4379 13340,4354 C 13376,4352 13452,4345 13510,4339 C 13568,4334 13622,4329 13630,4328 C 13638,4328 13679,4324 13720,4320 C 13761,4315 13833,4309 13879,4305 C 13926,4302 13966,4297 13969,4296 C 13972,4294 14009,4289 14050,4286 C 14137,4278 14195,4271 14265,4259 C 14378,4240 14652,4211 14746,4209 C 14802,4207 14858,4202 14871,4197 C 14900,4185 14950,4188 14968,4202 C 14986,4218 14984,4184 14954,4025 C 14931,3899 14920,3832 14905,3705 C 14902,3683 14898,3652 14896,3635 C 14893,3619 14888,3576 14885,3540 C 14881,3505 14870,3455 14861,3430 L 14844,3385 L 14751,3380 C 14695,3377 14652,3379 14645,3385 C 14638,3391 14629,3411 14626,3431 C 14622,3452 14613,3482 14604,3499 C 14589,3529 14542,3570 14522,3570 C 14516,3570 14510,3575 14508,3581 C 14505,3590 14499,3590 14485,3582 C 14474,3576 14443,3563 14417,3554 C 14340,3527 14284,3433 14273,3314 C 14268,3261 14270,3248 14289,3222 C 14316,3183 14370,3150 14404,3150 C 14443,3150 14561,3199 14582,3224 C 14593,3236 14605,3255 14610,3268 C 14620,3291 14621,3291 14760,3294 C 14809,3295 14815,3293 14815,3275 C 14815,3250 14795,3135 14745,2881 L 14706,2687 L 14626,2693 C 14581,2697 14534,2702 14520,2704 C 14506,2706 14466,2711 14430,2714 C 14394,2717 14354,2722 14340,2725 C 14326,2728 14257,2735 14185,2741 C 14114,2746 14019,2757 13975,2765 C 13931,2773 13861,2784 13820,2790 C 13779,2795 13696,2809 13635,2820 C 13512,2842 13197,2890 13135,2897 C 13113,2899 13052,2907 13000,2916 C 12890,2933 12855,2937 12780,2945 C 12750,2948 12651,2962 12560,2975 C 12469,2988 12364,3001 12325,3005 C 12023,3031 11701,3073 11555,3107 C 11507,3118 11403,3125 11220,3131 C 11074,3135 10942,3143 10925,3148 C 10891,3158 10891,3159 10910,3285 C 10933,3443 10945,3527 10961,3650 C 10966,3697 10975,3758 10980,3785 C 10985,3813 10994,3869 11001,3910 C 11007,3951 11017,4003 11022,4025 C 11033,4068 11033,4070 11049,4215 C 11055,4270 11067,4356 11075,4405 C 11083,4455 11092,4512 11095,4532 L 11101,4568 L 11207,4569 C 11266,4570 11316,4572 11318,4575 C 11321,4578 11331,4578 11341,4575 C 11350,4572 11384,4565 11417,4559 z M 16940,3705 C 17022,3698 17134,3682 17225,3665 C 17264,3657 17313,3649 17335,3645 C 17443,3629 17498,3619 17527,3611 C 17544,3606 17561,3604 17564,3608 C 17567,3611 17605,3606 17647,3596 C 17801,3563 18086,3507 18149,3499 C 18184,3494 18221,3488 18231,3485 C 18240,3482 18257,3477 18267,3475 C 18334,3461 18424,3438 18447,3428 C 18463,3422 18485,3418 18497,3418 C 18515,3419 18541,3408 18597,3375 C 18599,3374 18587,3321 18571,3258 C 18555,3194 18539,3116 18536,3085 C 18532,3053 18527,3023 18524,3018 C 18521,3013 18517,2995 18515,2977 C 18512,2959 18506,2925 18501,2900 C 18495,2875 18477,2790 18460,2710 C 18431,2572 18407,2474 18390,2420 C 18385,2406 18379,2383 18376,2368 C 18370,2343 18368,2342 18313,2347 C 18231,2354 18137,2373 17932,2426 C 17763,2470 17616,2503 17540,2515 C 17521,2518 17469,2527 17425,2535 C 17349,2548 17270,2560 17225,2565 C 17181,2571 17022,2602 16968,2616 C 16937,2624 16889,2633 16863,2636 C 16634,2661 16601,2669 16577,2709 C 16548,2756 16376,2922 16349,2928 C 16341,2930 16334,2935 16332,2938 C 16324,2961 16258,3014 16151,3086 C 16126,3103 16096,3127 16086,3139 L 16067,3160 L 16116,3160 C 16196,3160 16238,3150 16243,3129 C 16250,3101 16310,3070 16356,3070 C 16425,3070 16456,3086 16479,3136 C 16491,3160 16500,3185 16500,3192 C 16500,3198 16505,3218 16511,3235 C 16527,3279 16515,3318 16482,3333 C 16467,3339 16449,3351 16441,3358 C 16428,3371 16408,3371 16335,3358 C 16313,3355 16278,3314 16260,3269 C 16249,3244 16242,3240 16211,3240 C 16152,3240 16070,3252 16070,3261 C 16070,3265 16094,3287 16123,3310 C 16151,3333 16191,3364 16210,3380 C 16283,3441 16356,3497 16395,3521 C 16417,3534 16442,3550 16451,3555 C 16459,3561 16488,3579 16515,3595 C 16541,3612 16588,3646 16619,3673 L 16675,3720 L 16775,3715 C 16830,3713 16904,3708 16940,3705 z M 14523,3478 C 14551,3467 14554,3459 14565,3382 C 14572,3326 14552,3288 14501,3262 C 14434,3227 14399,3225 14371,3254 C 14350,3276 14348,3286 14354,3326 C 14362,3389 14406,3467 14439,3478 C 14475,3490 14491,3490 14523,3478 z M 16410,3267 C 16445,3272 16450,3270 16450,3253 C 16450,3225 16429,3166 16416,3158 C 16410,3154 16391,3150 16374,3150 C 16321,3150 16306,3215 16348,3263 C 16357,3273 16366,3277 16368,3272 C 16370,3266 16389,3264 16410,3267 z M 11010,3058 C 11062,3057 11174,3059 11257,3063 C 11347,3067 11427,3066 11452,3061 C 11532,3043 11665,3020 11725,3014 C 11758,3011 11786,3005 11788,3000 C 11790,2996 11800,2994 11810,2997 C 11821,3000 11851,2997 11877,2992 C 11903,2986 11962,2978 12007,2975 C 12145,2965 12462,2931 12505,2921 C 12527,2916 12597,2907 12660,2901 C 12723,2894 12831,2880 12900,2870 C 12969,2859 13043,2849 13065,2846 C 13131,2839 13395,2796 13780,2729 C 13843,2718 13915,2707 13940,2704 C 13964,2701 13987,2697 13991,2695 C 13996,2691 14065,2683 14375,2649 C 14471,2639 14643,2604 14666,2591 C 14674,2587 14673,2567 14664,2520 C 14656,2484 14648,2440 14646,2422 C 14643,2404 14637,2375 14632,2357 C 14627,2340 14615,2289 14605,2245 C 14596,2201 14585,2156 14580,2145 C 14576,2134 14564,2080 14555,2025 C 14546,1970 14537,1923 14535,1921 C 14530,1917 14302,1953 14290,1960 C 14285,1963 14279,1984 14277,2007 C 14269,2072 14196,2154 14168,2128 C 14161,2121 14134,2115 14109,2114 C 14047,2114 13971,2075 13946,2030 C 13935,2011 13920,1969 13914,1937 C 13903,1887 13904,1872 13917,1836 C 13930,1800 13941,1790 13984,1770 C 14097,1718 14224,1760 14255,1858 C 14263,1884 14253,1884 14435,1861 C 14479,1856 14518,1851 14522,1851 C 14531,1850 14525,1766 14507,1655 C 14498,1600 14489,1527 14487,1492 C 14484,1450 14476,1422 14464,1407 C 14454,1395 14445,1384 14445,1383 C 14444,1382 14420,1388 14390,1396 C 14360,1405 14310,1417 14279,1424 C 14249,1431 14206,1447 14184,1458 C 14163,1470 14091,1491 14025,1504 C 13959,1517 13878,1538 13845,1550 C 13812,1562 13754,1574 13715,1576 C 13546,1586 13498,1594 13370,1636 C 13312,1654 13247,1671 13225,1674 C 13203,1676 13142,1683 13090,1689 C 12754,1727 12714,1733 12460,1780 C 12338,1803 12251,1814 12130,1824 C 12089,1828 12039,1833 12020,1835 C 12001,1838 11913,1847 11825,1855 C 11737,1863 11656,1872 11645,1874 C 11634,1876 11589,1881 11545,1885 C 11501,1888 11452,1893 11435,1895 C 11357,1904 11221,1912 11075,1914 C 10934,1917 10860,1926 10810,1947 C 10802,1951 10775,1959 10750,1965 C 10707,1975 10705,1977 10706,2010 C 10706,2046 10725,2200 10733,2235 C 10736,2246 10741,2280 10745,2310 C 10748,2340 10758,2401 10765,2445 C 10773,2489 10781,2539 10784,2555 C 10787,2572 10791,2596 10794,2609 C 10797,2623 10802,2655 10805,2682 C 10808,2708 10822,2785 10836,2852 C 10849,2920 10863,2991 10866,3010 C 10874,3063 10878,3072 10897,3066 C 10907,3063 10958,3060 11010,3058 z M 14144,2015 C 14155,2010 14170,2012 14181,2019 C 14201,2031 14202,2028 14204,1980 C 14205,1940 14187,1871 14172,1857 C 14132,1821 14029,1820 14000,1854 C 13966,1895 13998,1991 14053,2015 C 14086,2030 14110,2029 14144,2015 z M 16500,1995 C 16563,1987 16638,1978 16665,1975 C 16744,1966 16921,1940 16965,1930 C 16987,1925 17020,1919 17037,1915 C 17055,1912 17098,1903 17132,1896 C 17167,1888 17216,1879 17243,1875 C 17269,1872 17290,1866 17290,1862 C 17290,1858 17304,1855 17321,1854 C 17337,1853 17368,1848 17388,1842 C 17438,1827 17619,1786 17815,1745 C 17903,1727 18016,1703 18065,1692 C 18206,1660 18310,1641 18370,1635 C 18400,1632 18441,1625 18460,1620 C 18479,1615 18547,1599 18610,1584 C 18673,1569 18730,1555 18735,1551 C 18741,1548 18750,1545 18755,1544 C 18800,1538 18874,1529 18915,1525 C 18943,1522 18974,1516 18985,1513 C 18996,1509 19012,1506 19020,1506 C 19029,1505 19036,1493 19038,1477 C 19040,1461 19046,1452 19052,1456 C 19058,1460 19066,1456 19071,1449 C 19078,1438 19080,1439 19080,1453 C 19080,1462 19085,1470 19090,1470 C 19100,1470 19097,1445 19079,1385 C 19069,1352 19019,1104 19000,995 C 18987,923 18952,793 18940,775 C 18937,770 18928,747 18922,725 C 18915,703 18902,656 18891,620 C 18880,584 18861,516 18849,468 C 18821,363 18826,364 18677,414 C 18581,446 18481,469 18225,520 C 18165,532 18063,553 18000,566 C 17848,599 17741,620 17710,625 C 17649,634 17552,652 17520,660 C 17501,665 17465,672 17440,674 C 17415,677 17319,695 17225,715 C 16932,776 16693,817 16460,845 C 16386,854 16314,866 16300,871 C 16286,877 16259,904 16240,932 C 16197,994 16120,1089 16093,1113 C 16082,1122 16036,1149 15992,1173 C 15889,1227 15833,1273 15786,1344 C 15766,1374 15743,1405 15735,1413 C 15718,1431 15706,1490 15719,1490 C 15725,1490 15739,1486 15752,1481 C 15765,1476 15797,1466 15823,1459 C 15850,1453 15878,1441 15886,1433 C 15894,1425 15900,1423 15900,1429 C 15900,1451 15928,1427 15946,1391 C 15957,1369 15982,1341 16005,1327 C 16121,1253 16249,1332 16253,1479 C 16255,1528 16251,1543 16226,1579 C 16185,1637 16168,1645 16106,1631 C 16040,1616 15979,1581 15963,1550 C 15956,1536 15944,1527 15938,1529 C 15931,1531 15918,1533 15910,1535 C 15814,1548 15790,1563 15823,1589 C 15829,1595 15857,1618 15883,1640 C 15909,1661 15961,1697 15998,1719 C 16035,1741 16081,1773 16100,1791 C 16119,1808 16159,1841 16188,1862 C 16216,1884 16240,1905 16240,1909 C 16240,1913 16255,1924 16274,1934 C 16293,1944 16321,1965 16336,1981 C 16368,2015 16356,2014 16500,1995 z M 16163,1529 C 16241,1440 16135,1334 16031,1398 C 16028,1399 16026,1425 16025,1455 C 16023,1511 16028,1521 16074,1546 C 16110,1566 16134,1561 16163,1529 z"
       id="path2763" />
    <path
       d="M 12185,5829 C 12158,5824 12086,5818 12027,5815 C 11967,5812 11914,5808 11909,5805 C 11893,5795 11899,5751 11918,5741 C 11931,5734 11971,5736 12041,5745 C 12262,5774 12270,5774 12323,5740 C 12384,5702 12475,5690 12575,5707 C 12678,5725 12723,5723 12749,5701 C 12793,5663 12952,5649 13125,5669 C 13180,5675 13200,5674 13218,5662 C 13236,5650 13267,5647 13348,5649 C 13474,5651 13754,5625 13826,5604 C 13879,5589 13910,5593 13910,5615 C 13910,5642 13855,5671 13770,5689 C 13697,5705 13493,5721 13380,5721 C 13306,5721 13269,5725 13253,5735 C 13235,5747 13217,5748 13143,5739 C 13095,5733 13004,5730 12941,5733 C 12842,5737 12824,5741 12796,5761 C 12762,5787 12744,5788 12565,5775 C 12458,5767 12409,5777 12338,5820 C 12303,5841 12268,5843 12185,5829 z"
       id="path2765" />
    <path
       d="M 11980,5333 C 11947,5327 11930,5312 11930,5289 C 11930,5273 11938,5270 11979,5270 C 12014,5270 12036,5264 12061,5245 C 12145,5184 12136,5185 12403,5199 C 12536,5206 12659,5212 12675,5212 C 12692,5212 12761,5211 12830,5210 C 12941,5209 12957,5206 12977,5188 C 13009,5158 13058,5153 13199,5164 C 13316,5173 13324,5172 13339,5154 C 13348,5144 13360,5134 13365,5133 C 13371,5132 13404,5118 13440,5103 C 13495,5080 13517,5076 13589,5078 C 13715,5080 13828,5066 13885,5040 C 13913,5028 13937,5014 13940,5009 C 13943,5005 13957,4997 13970,4992 C 13989,4985 13998,4987 14011,5003 C 14026,5022 14026,5025 14000,5050 C 13933,5116 13826,5144 13615,5154 C 13486,5160 13446,5170 13395,5210 L 13358,5240 L 13201,5237 C 13051,5235 13044,5236 13012,5258 L 12979,5282 L 12690,5277 C 12531,5274 12396,5269 12391,5265 C 12385,5262 12340,5257 12290,5254 C 12195,5248 12136,5260 12126,5285 C 12120,5303 12047,5340 12023,5339 C 12013,5338 11994,5335 11980,5333 z"
       id="path2767" />
    <path
       d="M 18182,5468 C 18177,5461 18169,5445 18166,5433 C 18162,5420 18154,5410 18149,5410 C 18144,5410 18140,5397 18140,5381 C 18140,5365 18133,5336 18125,5317 C 18117,5297 18110,5269 18110,5255 C 18110,5227 18103,5224 18076,5245 C 18054,5261 18029,5258 17958,5228 C 17917,5210 17908,5201 17877,5138 C 17844,5073 17842,5070 17837,5097 C 17834,5112 17831,5151 17830,5183 C 17828,5295 17803,5320 17741,5271 C 17700,5238 17674,5231 17683,5254 C 17691,5275 17643,5340 17618,5340 C 17606,5340 17573,5327 17543,5310 C 17514,5294 17488,5280 17485,5280 C 17482,5280 17480,5295 17480,5314 C 17480,5346 17460,5380 17441,5380 C 17420,5380 17402,5338 17392,5270 C 17371,5128 17358,5055 17351,5045 C 17336,5025 17355,4985 17381,4982 C 17414,4978 17426,4993 17444,5063 C 17468,5155 17488,5187 17545,5225 C 17574,5244 17601,5260 17604,5260 C 17621,5260 17599,5120 17578,5093 C 17572,5086 17568,5064 17567,5045 C 17566,5006 17583,4987 17612,4994 C 17621,4996 17631,4993 17634,4986 C 17636,4980 17639,4983 17639,4992 C 17642,5052 17718,5180 17751,5180 C 17763,5180 17760,5097 17744,5011 C 17735,4959 17746,4930 17775,4930 C 17788,4930 17805,4939 17813,4951 L 17828,4972 L 17835,4951 C 17861,4867 18007,4907 18070,5015 L 18097,5062 L 18092,4921 C 18088,4803 18090,4780 18102,4775 C 18127,4765 18169,4788 18176,4815 C 18183,4844 18183,4844 18236,4825 C 18273,4813 18288,4813 18366,4827 C 18503,4851 18545,4893 18506,4968 C 18487,5005 18443,5044 18392,5070 C 18368,5083 18351,5097 18353,5104 C 18355,5110 18384,5126 18418,5139 C 18473,5161 18483,5162 18506,5150 C 18528,5138 18533,5138 18540,5150 C 18555,5174 18552,5195 18530,5215 C 18512,5231 18504,5232 18457,5221 C 18393,5207 18303,5166 18273,5138 C 18236,5103 18243,5074 18298,5040 C 18324,5024 18350,5010 18356,5010 C 18376,5010 18450,4936 18442,4924 C 18428,4903 18347,4890 18287,4898 C 18235,4906 18227,4905 18215,4887 C 18193,4856 18186,4874 18207,4906 C 18222,4930 18223,4933 18209,4928 C 18188,4920 18173,4930 18169,4955 C 18167,4971 18178,5078 18185,5100 C 18186,5103 18190,5131 18194,5163 C 18199,5194 18205,5220 18209,5220 C 18212,5220 18216,5256 18217,5300 C 18218,5349 18225,5393 18234,5411 C 18245,5434 18247,5447 18239,5461 C 18228,5483 18197,5486 18182,5468 z M 18057,5122 C 18018,5038 17971,4991 17926,4990 C 17904,4990 17907,5019 17939,5093 C 17961,5144 17998,5169 18052,5170 L 18079,5170 L 18057,5122 z"
       id="path2769" />
    <path
       d="M 19043,5380 C 19032,5370 19014,5328 19001,5289 C 18988,5249 18958,5185 18934,5147 C 18891,5077 18891,5077 18879,5103 C 18871,5120 18853,5134 18826,5143 C 18712,5181 18601,5085 18580,4931 C 18574,4883 18576,4869 18594,4838 C 18617,4797 18656,4782 18705,4794 C 18739,4803 18857,4922 18902,4993 C 18918,5019 18917,4990 18900,4905 C 18883,4819 18875,4737 18878,4678 C 18880,4653 18884,4650 18914,4650 C 18949,4650 18977,4671 18965,4690 C 18961,4696 18964,4708 18971,4716 C 18981,4729 18981,4733 18970,4740 C 18961,4746 18957,4764 18958,4792 C 18961,4849 18989,5007 18999,5028 C 19004,5038 19015,5079 19024,5120 C 19041,5192 19072,5286 19091,5322 C 19106,5350 19101,5379 19080,5390 C 19065,5398 19057,5396 19043,5380 z M 18848,5064 L 18879,5058 L 18836,5001 C 18778,4926 18705,4860 18680,4860 C 18651,4860 18637,4902 18650,4948 C 18655,4969 18677,5004 18699,5028 C 18732,5064 18743,5070 18778,5070 C 18800,5070 18831,5067 18848,5064 z"
       id="path2771" />
    <path
       d="M 12125,4098 C 12076,4094 12017,4086 11995,4081 C 11973,4076 11925,4068 11888,4065 C 11818,4057 11782,4035 11793,4005 C 11800,3987 11836,3986 11911,4001 C 12015,4021 12076,4030 12143,4036 C 12215,4043 12228,4038 12283,3986 C 12333,3939 12405,3926 12578,3934 L 12731,3941 L 12851,3900 C 12978,3858 13013,3854 13120,3870 C 13178,3879 13193,3877 13265,3853 C 13353,3824 13376,3823 13618,3835 C 13728,3841 13770,3840 13770,3832 C 13770,3826 13777,3823 13785,3827 C 13794,3830 13806,3826 13813,3817 C 13833,3792 13870,3813 13870,3849 C 13870,3879 13836,3915 13818,3904 C 13814,3901 13810,3904 13810,3910 C 13810,3916 13806,3919 13801,3915 C 13784,3905 13377,3900 13366,3910 C 13346,3926 13228,3940 13107,3940 C 12989,3940 12876,3961 12811,3995 C 12790,4005 12745,4007 12608,4004 C 12447,4000 12428,4002 12384,4021 C 12357,4032 12323,4053 12309,4066 C 12273,4100 12232,4107 12125,4098 z"
       id="path2773" />
    <path
       d="M 11905,3649 C 11883,3643 11855,3637 11843,3634 C 11812,3628 11794,3592 11812,3574 C 11824,3562 11835,3561 11886,3572 C 11974,3592 11991,3587 12020,3534 C 12033,3509 12058,3477 12076,3463 C 12108,3439 12111,3439 12233,3445 C 12336,3451 12361,3450 12387,3436 C 12413,3423 12462,3419 12642,3416 C 12765,3414 12874,3409 12886,3405 C 12898,3401 12914,3383 12923,3365 C 12937,3335 12991,3294 13001,3305 C 13010,3313 13174,3323 13287,3322 C 13389,3321 13421,3316 13482,3295 C 13579,3262 13655,3253 13775,3263 C 13855,3269 13878,3275 13893,3291 C 13914,3313 13914,3312 13882,3329 C 13868,3337 13854,3338 13847,3332 C 13840,3328 13799,3323 13755,3321 C 13677,3319 13592,3333 13500,3363 C 13397,3396 13349,3402 13252,3395 C 13094,3382 13077,3382 13032,3387 C 12998,3391 12989,3397 12984,3416 C 12970,3470 12931,3479 12655,3488 C 12467,3494 12441,3497 12403,3517 C 12381,3529 12360,3537 12358,3535 C 12356,3533 12326,3527 12290,3521 C 12245,3513 12223,3514 12213,3521 C 12204,3530 12200,3529 12200,3521 C 12200,3506 12133,3515 12113,3532 C 12105,3538 12090,3560 12080,3579 C 12044,3650 11992,3671 11905,3649 z"
       id="path2775" />
    <path
       d="M 16826,3494 C 16817,3486 16809,3468 16809,3454 C 16808,3441 16807,3427 16806,3423 C 16805,3418 16800,3393 16796,3365 C 16792,3338 16785,3311 16782,3305 C 16778,3300 16775,3289 16774,3282 C 16768,3244 16763,3241 16718,3257 C 16695,3265 16670,3276 16663,3281 C 16655,3288 16646,3284 16635,3266 C 16608,3225 16623,3203 16691,3184 C 16747,3168 16751,3165 16746,3141 C 16743,3127 16738,3097 16735,3075 C 16732,3053 16724,3016 16718,2992 C 16704,2936 16721,2900 16761,2900 C 16792,2900 16802,2922 16801,2985 C 16801,3007 16806,3052 16813,3085 L 16826,3145 L 16875,3142 C 16902,3141 16927,3135 16930,3130 C 16934,3124 16949,3124 16973,3131 C 17003,3139 17010,3146 17010,3166 C 17010,3192 16951,3257 16940,3242 C 16931,3227 16900,3220 16871,3226 C 16843,3232 16843,3233 16852,3273 C 16857,3295 16863,3317 16866,3322 C 16869,3326 16873,3366 16876,3410 C 16880,3481 16878,3490 16861,3499 C 16846,3507 16838,3506 16826,3494 z"
       id="path2777" />
    <path
       d="M 17413,3422 C 17389,3399 17364,3345 17350,3290 C 17335,3230 17297,3182 17277,3198 C 17269,3205 17242,3213 17217,3216 C 17178,3222 17165,3219 17125,3194 C 17056,3150 17007,3036 17031,2973 C 17041,2946 17096,2910 17126,2910 C 17155,2910 17219,2964 17260,3023 C 17278,3049 17295,3069 17297,3066 C 17299,3064 17294,3034 17285,2999 C 17276,2965 17266,2904 17263,2864 L 17258,2791 L 17289,2776 L 17320,2760 L 17344,2797 C 17358,2820 17364,2839 17359,2844 C 17354,2850 17350,2873 17350,2897 C 17350,2959 17428,3309 17451,3348 C 17473,3386 17475,3411 17458,3428 C 17442,3444 17433,3443 17413,3422 z M 17234,3124 C 17242,3104 17236,3096 17186,3043 C 17118,2970 17073,2995 17119,3080 C 17147,3133 17220,3161 17234,3124 z"
       id="path2779" />
    <path
       d="M 17651,3344 C 17639,3330 17630,3311 17632,3302 C 17635,3283 17592,3166 17547,3070 C 17520,3013 17511,2956 17526,2941 C 17528,2938 17559,2935 17593,2934 C 17686,2932 17681,2934 17669,2903 C 17663,2887 17658,2873 17658,2870 C 17657,2863 17654,2851 17641,2811 C 17626,2764 17626,2762 17656,2735 C 17683,2710 17707,2701 17695,2720 C 17692,2726 17696,2737 17705,2746 C 17714,2755 17719,2768 17716,2776 C 17713,2783 17717,2794 17725,2800 C 17732,2806 17736,2819 17733,2829 C 17730,2840 17735,2859 17744,2871 C 17752,2884 17760,2900 17762,2905 C 17766,2917 17814,2913 17853,2898 C 17875,2889 17884,2891 17899,2904 C 17908,2913 17920,2917 17923,2913 C 17927,2910 17925,2921 17919,2938 C 17906,2975 17885,2994 17865,2987 C 17857,2983 17848,2985 17845,2990 C 17842,2995 17833,2997 17825,2994 C 17798,2983 17783,3011 17791,3054 C 17803,3120 17790,3156 17761,3140 C 17740,3129 17722,3089 17718,3045 C 17715,3017 17713,3015 17676,3017 C 17655,3018 17635,3022 17632,3024 C 17623,3033 17647,3123 17677,3195 C 17725,3308 17730,3370 17691,3370 C 17681,3370 17664,3358 17651,3344 z"
       id="path2781" />
    <path
       d="M 18130,3262 C 18095,3201 18093,3196 18095,3170 C 18099,3120 18140,3137 18187,3207 C 18205,3235 18198,3271 18171,3287 C 18153,3298 18149,3295 18130,3262 z"
       id="path2783" />
    <path
       d="M 18052,3008 C 18045,3001 18040,2978 18040,2956 C 18040,2933 18035,2886 18029,2850 C 18023,2814 18017,2772 18015,2756 C 18009,2719 18002,2692 17984,2653 C 17967,2616 17958,2609 17943,2618 C 17929,2627 17900,2685 17900,2705 C 17900,2713 17894,2720 17886,2720 C 17876,2720 17869,2704 17864,2675 C 17859,2639 17862,2621 17881,2583 C 17902,2542 17910,2534 17944,2527 C 17974,2521 17987,2523 18002,2536 C 18033,2565 18072,2660 18077,2722 C 18080,2754 18086,2780 18090,2780 C 18098,2780 18097,2778 18108,2887 C 18112,2932 18111,2981 18107,2995 C 18098,3022 18072,3028 18052,3008 z"
       id="path2785" />
    <path
       d="M 11935,2619 C 11880,2608 11825,2597 11812,2594 C 11800,2592 11784,2578 11778,2564 C 11768,2542 11769,2536 11784,2524 C 11795,2517 11807,2513 11812,2516 C 11833,2529 11962,2560 12022,2566 C 12130,2577 12172,2566 12236,2510 C 12313,2443 12381,2431 12550,2455 C 12602,2463 12680,2472 12722,2476 C 12793,2482 12800,2481 12806,2464 C 12824,2406 12857,2383 12935,2375 C 12968,2371 13020,2362 13050,2354 C 13082,2346 13154,2340 13230,2340 C 13299,2340 13373,2336 13395,2331 C 13465,2315 13590,2309 13610,2320 C 13638,2335 13636,2377 13608,2386 C 13595,2391 13556,2395 13520,2396 C 13310,2400 13123,2413 13087,2426 C 13065,2434 13029,2440 13006,2441 C 12953,2442 12875,2462 12875,2475 C 12873,2502 12856,2532 12838,2539 C 12827,2543 12786,2542 12747,2538 C 12641,2526 12555,2518 12466,2513 C 12397,2509 12384,2510 12373,2526 C 12366,2536 12360,2539 12360,2532 C 12360,2515 12310,2536 12292,2561 C 12241,2634 12114,2655 11935,2619 z"
       id="path2787" />
    <path
       d="M 11835,2269 C 11771,2254 11741,2239 11734,2218 C 11726,2191 11747,2178 11785,2187 C 11828,2197 11917,2192 11942,2179 C 11953,2173 11983,2166 12008,2164 C 12032,2161 12062,2154 12074,2148 C 12087,2141 12139,2138 12215,2140 C 12491,2146 12466,2149 12498,2111 C 12533,2068 12585,2059 12718,2072 C 12841,2084 12880,2079 12924,2045 C 12975,2006 13009,2001 13261,1991 C 13472,1984 13490,1982 13525,1960 C 13574,1930 13704,1927 13725,1956 C 13747,1987 13732,2000 13673,2000 C 13643,2000 13607,2006 13592,2014 C 13549,2036 13456,2049 13335,2051 C 13159,2053 13039,2072 12968,2109 L 12908,2141 L 12741,2141 L 12575,2141 L 12542,2173 L 12510,2204 L 12317,2206 C 12142,2207 12116,2209 12026,2234 C 11972,2248 11919,2265 11909,2270 C 11889,2281 11889,2281 11835,2269 z"
       id="path2789" />
    <path
       d="M 16630,1579 C 16589,1574 16558,1564 16475,1530 C 16436,1514 16407,1474 16407,1437 C 16407,1414 16416,1398 16446,1373 C 16467,1355 16489,1340 16493,1340 C 16507,1340 16560,1300 16560,1290 C 16560,1285 16546,1278 16528,1275 C 16501,1269 16471,1266 16362,1261 C 16334,1260 16318,1222 16330,1183 C 16334,1168 16339,1161 16339,1168 C 16340,1177 16356,1180 16393,1179 C 16485,1176 16598,1200 16622,1227 C 16666,1278 16645,1355 16579,1385 C 16558,1395 16540,1406 16540,1410 C 16540,1415 16529,1421 16515,1424 C 16478,1433 16484,1447 16538,1471 C 16599,1500 16680,1502 16709,1476 C 16743,1445 16779,1474 16766,1523 C 16761,1544 16748,1553 16690,1579 C 16682,1583 16655,1583 16630,1579 z"
       id="path2791" />
    <path
       d="M 16920,1496 C 16890,1489 16842,1469 16813,1451 C 16752,1414 16730,1368 16730,1284 C 16730,1234 16734,1224 16763,1195 C 16802,1156 16886,1129 16985,1124 C 17024,1123 17067,1118 17081,1115 C 17103,1109 17110,1114 17135,1152 C 17171,1206 17264,1304 17268,1292 C 17269,1287 17262,1246 17252,1201 L 17232,1120 L 17258,1099 C 17283,1080 17284,1080 17300,1097 C 17309,1107 17324,1136 17334,1161 C 17351,1208 17413,1290 17432,1290 C 17442,1290 17439,1205 17427,1165 C 17424,1154 17417,1130 17411,1112 C 17399,1073 17405,1053 17432,1039 C 17457,1026 17500,1052 17500,1080 C 17500,1091 17506,1100 17513,1100 C 17522,1100 17522,1102 17512,1109 C 17501,1116 17500,1131 17510,1193 C 17523,1279 17516,1329 17488,1365 C 17462,1398 17447,1397 17400,1354 C 17364,1321 17360,1320 17360,1339 C 17360,1350 17360,1363 17359,1368 C 17358,1379 17328,1410 17317,1410 C 17312,1410 17279,1389 17243,1364 C 17208,1339 17176,1321 17173,1324 C 17170,1327 17174,1349 17182,1373 C 17200,1428 17190,1463 17158,1458 C 17141,1456 17131,1444 17122,1415 C 17105,1365 17081,1278 17068,1223 C 17060,1186 17056,1181 17041,1190 C 17031,1195 17020,1197 17018,1195 C 17011,1187 16830,1236 16817,1249 C 16805,1261 16809,1263 16895,1280 C 16984,1298 17051,1337 17065,1380 C 17079,1421 17068,1465 17036,1492 C 17012,1512 16996,1513 16920,1496 z M 16998,1408 C 16991,1388 16928,1362 16871,1354 C 16803,1345 16803,1363 16873,1395 C 16929,1422 17005,1429 16998,1408 z"
       id="path2793" />
    <path
       d="M 18549,1438 C 18537,1414 18523,1382 18519,1365 C 18515,1349 18495,1283 18476,1220 C 18456,1157 18437,1089 18434,1070 C 18431,1051 18417,1013 18404,987 C 18376,931 18374,910 18395,910 C 18416,910 18414,890 18393,889 C 18383,888 18368,887 18360,886 C 18351,886 18345,875 18345,860 C 18345,836 18348,835 18405,832 C 18438,831 18472,827 18480,824 C 18488,821 18534,816 18582,814 C 18667,809 18671,810 18694,835 C 18741,886 18808,1017 18815,1073 C 18822,1133 18810,1176 18782,1184 C 18754,1193 18644,1156 18576,1115 C 18544,1095 18516,1081 18513,1084 C 18507,1090 18579,1339 18602,1386 C 18607,1397 18610,1422 18608,1441 C 18603,1492 18576,1491 18549,1438 z M 18750,1095 C 18750,1070 18680,929 18652,896 C 18637,880 18625,878 18551,883 C 18505,887 18465,892 18462,895 C 18444,912 18521,1000 18602,1053 C 18705,1121 18750,1134 18750,1095 z"
       id="path2795" />
    <path
       d="M 17585,1390 C 17581,1384 17576,1307 17574,1219 C 17569,1077 17571,1056 17586,1039 C 17595,1029 17609,1020 17616,1020 C 17623,1020 17650,1048 17678,1083 C 17705,1117 17746,1165 17770,1190 L 17812,1235 L 17806,1132 C 17800,1026 17809,984 17835,993 C 17842,996 17852,994 17857,989 C 17864,982 17877,992 17896,1016 C 17912,1037 17932,1061 17940,1069 C 17948,1078 17961,1096 17968,1110 C 17993,1160 18022,1206 18046,1231 C 18073,1259 18077,1297 18057,1324 C 18046,1339 18040,1341 18022,1331 C 18010,1325 17997,1307 17994,1292 C 17990,1277 17979,1253 17969,1238 C 17958,1224 17950,1209 17950,1205 C 17950,1195 17896,1120 17889,1120 C 17886,1120 17885,1173 17887,1238 C 17891,1378 17888,1400 17857,1400 C 17841,1400 17828,1387 17809,1355 C 17783,1308 17671,1172 17658,1171 C 17653,1170 17650,1212 17650,1263 C 17650,1331 17646,1362 17634,1378 C 17618,1401 17595,1407 17585,1390 z"
       id="path2797" />
    <path
       d="M 18218,1283 C 18174,1261 18040,1119 18040,1095 C 18040,1087 18045,1078 18050,1075 C 18056,1072 18060,1060 18060,1049 C 18060,1014 18109,923 18138,904 C 18173,881 18229,883 18282,909 C 18334,935 18351,949 18367,976 C 18389,1016 18368,1023 18309,995 C 18225,956 18167,967 18152,1024 C 18144,1052 18146,1056 18169,1062 C 18194,1069 18262,1090 18306,1105 C 18354,1121 18391,1250 18356,1279 C 18336,1296 18249,1298 18218,1283 z M 18298,1203 C 18294,1182 18247,1155 18201,1146 L 18166,1140 L 18189,1164 C 18213,1190 18266,1219 18288,1220 C 18296,1220 18300,1212 18298,1203 z"
       id="path2799" />
    <path
       d="M 9360,6120 C 9360,6115 9365,6110 9371,6110 C 9376,6110 9378,6115 9375,6120 C 9372,6126 9367,6130 9364,6130 C 9362,6130 9360,6126 9360,6120 z"
       id="path2801" />
    <path
       d="M 10075,2570 C 10072,2565 10074,2560 10079,2560 C 10085,2560 10090,2565 10090,2570 C 10090,2576 10088,2580 10086,2580 C 10083,2580 10078,2576 10075,2570 z"
       id="path2803" />
    <path
       d="M 4725,60 C 4722,55 4724,50 4729,50 C 4735,50 4740,55 4740,60 C 4740,66 4738,70 4736,70 C 4733,70 4728,66 4725,60 z"
       id="path2805" />
    <path
       d="M 19145,50 C 19148,45 19153,40 19156,40 C 19158,40 19160,45 19160,50 C 19160,56 19155,60 19149,60 C 19144,60 19142,56 19145,50 z"
       id="path2807" />
  </g>
</svg>
